<svg width="473" height="469" viewBox="0 0 473 469" fill="none" xmlns="http://www.w3.org/2000/svg">
<g clip-path="url(#clip0_0_266)">
<path d="M95.3553 401.56V433.732H142.429H194.347V401.56H95.3553Z" fill="#F7F6FB"/>
<path d="M91.2009 392.566V401.56H197.807V392.566H142.429H91.2009Z" fill="#E9E4F1"/>
<path d="M144.504 433.732H194.347V401.56H197.807V392.566H142.429V400.728L144.504 433.732Z" fill="#E9E4F1"/>
<path d="M129.276 406.746H109.198V411.588H129.276V406.746Z" fill="#E9E4F1"/>
<path d="M132.39 417.644H106.613V427.87H132.39V417.644Z" fill="white"/>
<path d="M125 367V396H168.273H216V367H125Z" fill="#F7F6FB"/>
<path d="M122 359V367H219V359H168.61H122Z" fill="#E9E4F1"/>
<path d="M169.915 396H215.81V367.084H219V359H168V366.336L169.915 396Z" fill="#E9E4F1"/>
<path d="M156 372H138V376H156V372Z" fill="#E9E4F1"/>
<path d="M147.623 376.52H121.846V386.746H147.623V376.52Z" fill="white"/>
<path d="M126.064 43.233C128.471 41.7757 131.062 40.647 133.769 39.8768L135.362 32.2269L148.281 32L150.143 39.5857C152.883 40.261 155.521 41.299 157.986 42.6722L164.514 38.3913L173.812 47.3812L169.767 54.0593C171.223 56.4675 172.351 59.0588 173.123 61.7649L180.773 63.3574L181 76.2813L173.41 78.1435C172.737 80.8821 171.7 83.5182 170.328 85.9818L174.609 92.5144L165.619 101.812L158.941 97.7627C156.533 99.2198 153.941 100.35 151.235 101.123L149.643 108.773L136.719 109L134.857 101.41C132.118 100.735 129.482 99.6974 127.018 98.3235L120.486 102.604L111.188 93.6146L115.237 86.9407C113.778 84.5248 112.647 81.9247 111.877 79.2094L104.227 77.6169L104 64.6973L111.59 62.8351C112.265 60.0958 113.302 57.4584 114.672 54.9926L110.391 48.4642L119.381 39.1619L126.064 43.2116V43.233ZM132.951 60.4678C131.047 62.4409 129.77 64.9346 129.283 67.6333C128.796 70.332 129.12 73.1146 130.214 75.6293C131.308 78.1439 133.123 80.2776 135.43 81.7606C137.737 83.2436 140.431 84.0093 143.173 83.9608C145.915 83.9123 148.581 83.0519 150.834 81.4882C153.087 79.9246 154.826 77.728 155.83 75.1762C156.835 72.6245 157.06 69.8321 156.477 67.1523C155.895 64.4725 154.531 62.0256 152.558 60.121C151.248 58.8564 149.701 57.8622 148.007 57.1952C146.313 56.5282 144.504 56.2015 142.683 56.2337C140.862 56.2659 139.066 56.6564 137.396 57.3829C135.726 58.1093 134.216 59.1576 132.951 60.4678Z" fill="#F0EDF6"/>
<path d="M335.623 27.4226C338.538 25.6792 341.676 24.3289 344.953 23.4078L346.875 14.2705L362.498 14L364.741 23.0643C368.049 23.8711 371.233 25.1101 374.21 26.7484L382.095 21.6345L393.325 32.3691L388.435 40.347C390.198 43.2328 391.562 46.3391 392.492 49.5831L401.727 51.481L402 66.9388L392.822 69.1373C392.006 72.4092 390.753 75.5586 389.094 78.5022L394.263 86.3084L383.414 97.4166L375.351 92.5817C372.435 94.3246 369.295 95.6734 366.017 96.5922L364.094 105.729L348.494 106L346.246 96.9357C342.939 96.1281 339.755 94.8892 336.777 93.2516L328.905 98.3741L317.679 87.6395L322.565 79.6615C320.805 76.7766 319.442 73.6719 318.512 70.4297L309.274 68.5276L309 53.0697L318.165 50.8455C318.977 47.5732 320.23 44.4235 321.888 41.4806L316.72 33.6744L327.569 22.5662L335.632 27.4054L335.623 27.4226ZM343.942 47.9901C341.644 50.3489 340.104 53.329 339.518 56.5536C338.931 59.7783 339.324 63.1025 340.647 66.1061C341.97 69.1096 344.164 71.6575 346.95 73.4276C349.737 75.1976 352.991 76.1103 356.302 76.0503C359.612 75.9902 362.831 74.9601 365.55 73.0902C368.269 71.2203 370.366 68.5945 371.577 65.545C372.788 62.4956 373.058 59.1593 372.352 55.9581C371.647 52.7569 369.998 49.8346 367.614 47.5607C364.417 44.5117 360.127 42.844 355.688 42.9245C351.249 43.005 347.023 44.8272 343.942 47.9901Z" fill="#F0EDF6"/>
<path d="M337.592 153.508C339.85 152.142 342.281 151.086 344.82 150.367L346.31 143.211L358.403 143L360.125 150.095C362.69 150.725 365.158 151.695 367.465 152.978L373.574 148.977L382.275 157.372L378.487 163.615C379.852 165.874 380.909 168.305 381.629 170.844L388.785 172.333L389 184.419L381.901 186.141C381.268 188.697 380.296 191.157 379.012 193.456L383.02 199.566L374.634 208.279L368.387 204.492C366.127 205.857 363.694 206.913 361.154 207.633L359.664 214.785L347.575 215L345.853 207.9C343.296 207.268 340.835 206.299 338.535 205.017L332.426 209.019L323.725 200.624L327.513 194.381C326.147 192.122 325.09 189.691 324.371 187.152L317.211 185.663L317 173.581L324.099 171.838C324.733 169.282 325.705 166.822 326.988 164.523L322.98 158.417L331.379 149.721L337.631 153.508H337.592ZM344.05 169.605C342.268 171.45 341.074 173.781 340.618 176.304C340.162 178.827 340.465 181.429 341.489 183.78C342.512 186.131 344.21 188.126 346.368 189.513C348.526 190.9 351.047 191.616 353.612 191.57C356.176 191.525 358.67 190.721 360.778 189.259C362.886 187.798 364.512 185.744 365.452 183.359C366.392 180.973 366.604 178.362 366.059 175.857C365.515 173.351 364.239 171.063 362.394 169.282C361.168 168.098 359.72 167.166 358.134 166.542C356.547 165.917 354.853 165.611 353.148 165.641C351.444 165.671 349.761 166.036 348.198 166.716C346.634 167.396 345.22 168.378 344.037 169.605H344.05Z" fill="#E9E4F1"/>
<path d="M402.458 115.82C403.714 115.069 405.065 114.49 406.474 114.096L407.3 110.116L414.02 110L414.984 113.946C416.408 114.298 417.779 114.838 419.06 115.552L422.456 113.325L427.285 117.995L425.185 121.467C425.935 122.724 426.514 124.075 426.907 125.486L430.884 126.313L431 133.037L427.057 134.002C426.706 135.427 426.166 136.799 425.452 138.081L427.677 141.48L423.033 146.283L419.563 144.18C418.307 144.931 416.957 145.51 415.547 145.904L414.721 149.884L408.002 150L407.038 146.054C405.614 145.702 404.243 145.162 402.962 144.448L399.566 146.675L394.736 142.005L396.837 138.533C396.08 137.277 395.493 135.926 395.093 134.514L391.116 133.687L391 126.963L394.943 125.998C395.294 124.573 395.834 123.201 396.548 121.919L394.323 118.52L398.989 113.687L402.458 115.789V115.82ZM406.039 124.775C405.049 125.801 404.385 127.097 404.131 128.501C403.878 129.904 404.045 131.351 404.613 132.659C405.182 133.967 406.124 135.077 407.323 135.849C408.521 136.621 409.921 137.019 411.346 136.995C412.771 136.97 414.157 136.523 415.328 135.71C416.499 134.897 417.403 133.755 417.925 132.428C418.448 131.102 418.565 129.649 418.263 128.256C417.961 126.862 417.253 125.589 416.228 124.598C414.853 123.27 413.008 122.542 411.097 122.575C409.186 122.608 407.367 123.399 406.039 124.775Z" fill="#F7F6FB"/>
<path d="M210.452 27.8378C211.706 27.0783 213.055 26.4908 214.466 26.0912L215.292 22.1205L222.007 22L222.971 25.9406C224.394 26.292 225.764 26.8317 227.045 27.5453L230.439 25.3212L235.266 29.9845L233.166 33.4519C233.923 34.7064 234.509 36.0563 234.909 37.4657L238.879 38.2917L239 45.0071L235.059 45.9708C234.708 47.394 234.168 48.7641 233.455 50.0447L235.679 53.439L231.015 58.2701L227.548 56.1665C226.294 56.9231 224.944 57.5091 223.534 57.9088L222.708 61.8838L215.993 62L215.029 58.0594C213.606 57.708 212.236 57.1683 210.955 56.4547L207.561 58.6788L202.73 54.0155L204.834 50.5481C204.077 49.2936 203.491 47.9437 203.091 46.5343L199.116 45.7083L199 38.9929L202.94 38.0293C203.29 36.6032 203.828 35.2302 204.541 33.9467L202.317 30.5524L206.98 25.7255L210.448 27.8292L210.452 27.8378ZM214.031 36.7774C213.042 37.8018 212.378 39.0967 212.124 40.4983C211.871 41.8998 212.038 43.3451 212.606 44.6514C213.174 45.9577 214.116 47.0663 215.314 47.837C216.512 48.6077 217.911 49.0059 219.336 48.9812C220.76 48.9566 222.145 48.5101 223.315 47.6984C224.485 46.8867 225.389 45.7462 225.911 44.421C226.433 43.0958 226.551 41.6456 226.249 40.2536C225.947 38.8617 225.238 37.5905 224.214 36.601C222.84 35.2751 220.995 34.549 219.086 34.5821C217.177 34.6152 215.359 35.4047 214.031 36.7774Z" fill="#F7F6FB"/>
<path d="M149.461 135.818C150.718 135.069 152.069 134.49 153.478 134.096L154.304 130.116L161.013 130L161.98 133.945C163.402 134.297 164.77 134.837 166.049 135.551L169.442 133.325L174.271 137.993L172.168 141.464C172.926 142.72 173.513 144.071 173.914 145.482L177.884 146.309L178 153.032L174.061 153.997C173.713 155.422 173.175 156.794 172.461 158.075L174.684 161.473L170.009 166.283L166.539 164.182C165.284 164.932 163.934 165.511 162.526 165.904L161.701 169.884L154.992 170L154.024 166.055C152.602 165.703 151.232 165.162 149.951 164.449L146.563 166.675L141.733 162.007L143.836 158.536C143.078 157.28 142.491 155.929 142.09 154.518L138.121 153.691L138 146.968L141.944 146.003C142.292 144.578 142.83 143.206 143.544 141.925L141.32 138.527L145.982 133.695L149.448 135.797L149.461 135.818ZM153.039 144.772C152.051 145.798 151.388 147.094 151.135 148.497C150.882 149.9 151.05 151.346 151.617 152.654C152.185 153.961 153.127 155.07 154.324 155.842C155.522 156.613 156.92 157.011 158.344 156.987C159.767 156.962 161.151 156.515 162.321 155.703C163.491 154.891 164.394 153.749 164.917 152.423C165.439 151.097 165.557 149.645 165.255 148.252C164.954 146.859 164.247 145.586 163.223 144.595C162.543 143.937 161.74 143.419 160.86 143.072C159.98 142.724 159.04 142.554 158.095 142.57C157.149 142.587 156.216 142.789 155.348 143.167C154.481 143.545 153.696 144.09 153.039 144.772Z" fill="#F7F6FB"/>
<path d="M451.911 460.762C451.911 460.913 351.511 461.036 227.693 461.036C103.874 461.036 3.4548 460.913 3.4548 460.762C3.4548 460.611 103.831 460.483 227.693 460.483C351.554 460.483 451.911 460.611 451.911 460.762Z" fill="#2A3442"/>
<path d="M318.625 435L193.292 434.922C178.221 434.922 166 422.124 166 406.349L166.061 77.5645C166.061 61.7811 178.295 48.9914 193.379 49L318.708 49.0776C333.783 49.0776 346 61.8803 346 77.6508L345.935 406.44C345.939 422.223 333.705 435.013 318.625 435Z" fill="#2A3442"/>
<path d="M318.053 60.069H293.959C290.725 60.069 288.104 62.9546 288.104 66.5389V71.1498C288.104 74.7169 285.484 77.6197 282.254 77.6197L235.287 77.5895C232.057 77.5895 229.437 74.6953 229.441 71.1196V66.4699C229.441 62.9028 226.821 60 223.591 60H215.116H194.029C183.557 60 175.06 68.9501 175.06 80.005L175 400.913C175 411.959 183.479 420.918 193.948 420.927L317.971 421C328.443 421 336.936 412.05 336.94 400.999L337 80.0912C337 69.032 328.521 60.0776 318.053 60.069Z" fill="white"/>
<path d="M279 218.022C278.996 219.801 278.464 221.539 277.472 223.016C276.481 224.493 275.074 225.644 273.429 226.321C271.784 226.999 269.975 227.174 268.23 226.824C266.486 226.475 264.884 225.616 263.628 224.356C262.372 223.096 261.517 221.493 261.171 219.748C260.826 218.002 261.005 216.194 261.687 214.551C262.369 212.907 263.523 211.503 265.002 210.515C266.482 209.527 268.221 209 270 209C271.183 209.001 272.355 209.236 273.448 209.69C274.541 210.144 275.533 210.809 276.369 211.647C277.205 212.484 277.868 213.479 278.319 214.573C278.77 215.667 279.002 216.839 279 218.022Z" fill="#2B378B"/>
<path d="M244.5 227C249.747 227 254 222.971 254 218C254 213.029 249.747 209 244.5 209C239.253 209 235 213.029 235 218C235 222.971 239.253 227 244.5 227Z" fill="#2B378B"/>
<path d="M224.5 211C229.747 211 234 206.747 234 201.5C234 196.253 229.747 192 224.5 192C219.253 192 215 196.253 215 201.5C215 206.747 219.253 211 224.5 211Z" fill="#2B378B"/>
<path d="M220.5 187C226.299 187 231 182.299 231 176.5C231 170.701 226.299 166 220.5 166C214.701 166 210 170.701 210 176.5C210 182.299 214.701 187 220.5 187Z" fill="#2B378B"/>
<path d="M233.5 165C239.299 165 244 160.299 244 154.5C244 148.701 239.299 144 233.5 144C227.701 144 223 148.701 223 154.5C223 160.299 227.701 165 233.5 165Z" fill="#2B378B"/>
<path d="M257.5 157C263.851 157 269 151.851 269 145.5C269 139.149 263.851 134 257.5 134C251.149 134 246 139.149 246 145.5C246 151.851 251.149 157 257.5 157Z" fill="#2B378B"/>
<path d="M298 201.513C297.997 203.194 297.497 204.836 296.561 206.232C295.626 207.628 294.297 208.715 292.744 209.357C291.19 209.998 289.482 210.165 287.834 209.835C286.186 209.506 284.672 208.695 283.485 207.506C282.298 206.316 281.489 204.802 281.162 203.153C280.836 201.505 281.004 199.797 281.648 198.244C282.292 196.692 283.381 195.365 284.779 194.432C286.177 193.498 287.819 193 289.5 193C291.756 193.002 293.919 193.9 295.513 195.497C297.106 197.093 298.001 199.257 298 201.513Z" fill="#2B378B"/>
<path d="M294 184C298.418 184 302 180.418 302 176C302 171.582 298.418 168 294 168C289.582 168 286 171.582 286 176C286 180.418 289.582 184 294 184Z" fill="#2B378B"/>
<path d="M281 161C284.866 161 288 157.866 288 154C288 150.134 284.866 147 281 147C277.134 147 274 150.134 274 154C274 157.866 277.134 161 281 161Z" fill="#2B378B"/>
<g opacity="0.5">
<path d="M278.837 217.876C278.832 219.591 278.32 221.266 277.364 222.69C276.407 224.113 275.05 225.222 273.464 225.875C271.878 226.528 270.133 226.697 268.451 226.36C266.769 226.023 265.225 225.195 264.013 223.981C262.801 222.767 261.977 221.221 261.644 219.539C261.311 217.857 261.484 216.114 262.142 214.53C262.799 212.947 263.911 211.593 265.338 210.641C266.765 209.689 268.442 209.181 270.158 209.181C271.299 209.182 272.429 209.408 273.483 209.845C274.537 210.283 275.494 210.924 276.3 211.731C277.106 212.539 277.745 213.497 278.18 214.552C278.615 215.606 278.838 216.736 278.837 217.876Z" fill="white"/>
</g>
<g opacity="0.4">
<path d="M244.392 227.137C249.498 227.137 253.637 222.991 253.637 217.876C253.637 212.762 249.498 208.616 244.392 208.616C239.287 208.616 235.148 212.762 235.148 217.876C235.148 222.991 239.287 227.137 244.392 227.137Z" fill="white"/>
</g>
<g opacity="0.3">
<path d="M224.587 211.324C230.007 211.324 234.401 206.923 234.401 201.494C234.401 196.065 230.007 191.664 224.587 191.664C219.167 191.664 214.773 196.065 214.773 201.494C214.773 206.923 219.167 211.324 224.587 211.324Z" fill="white"/>
</g>
<g opacity="0.2">
<path d="M220.565 186.57C226.226 186.57 230.815 181.974 230.815 176.304C230.815 170.634 226.226 166.038 220.565 166.038C214.904 166.038 210.315 170.634 210.315 176.304C210.315 181.974 214.904 186.57 220.565 186.57Z" fill="white"/>
</g>
<g opacity="0.1">
<path d="M233.115 164.869C238.965 164.869 243.706 160.119 243.706 154.258C243.706 148.398 238.965 143.647 233.115 143.647C227.266 143.647 222.524 148.398 222.524 154.258C222.524 160.119 227.266 164.869 233.115 164.869Z" fill="white"/>
</g>
<g opacity="0.2">
<path d="M257.236 157.109C263.612 157.109 268.781 151.932 268.781 145.545C268.781 139.159 263.612 133.981 257.236 133.981C250.86 133.981 245.692 139.159 245.692 145.545C245.692 151.932 250.86 157.109 257.236 157.109Z" fill="white"/>
</g>
<g opacity="0.6">
<path d="M297.688 201.287C297.686 202.944 297.192 204.563 296.269 205.94C295.346 207.316 294.035 208.389 292.503 209.021C290.97 209.653 289.285 209.817 287.659 209.493C286.033 209.168 284.54 208.368 283.369 207.196C282.197 206.023 281.4 204.53 281.077 202.905C280.755 201.279 280.921 199.595 281.557 198.064C282.192 196.533 283.267 195.225 284.645 194.305C286.024 193.385 287.645 192.893 289.303 192.893C291.528 192.896 293.662 193.781 295.234 195.355C296.807 196.929 297.689 199.063 297.688 201.287Z" fill="white"/>
</g>
<g opacity="0.7">
<path d="M293.791 183.818C298.089 183.818 301.572 180.328 301.572 176.024C301.572 171.719 298.089 168.229 293.791 168.229C289.493 168.229 286.01 171.719 286.01 176.024C286.01 180.328 289.493 183.818 293.791 183.818Z" fill="white"/>
</g>
<g opacity="0.8">
<path d="M280.852 161.082C284.778 161.082 287.96 157.896 287.96 153.965C287.96 150.034 284.778 146.848 280.852 146.848C276.927 146.848 273.744 150.034 273.744 153.965C273.744 157.896 276.927 161.082 280.852 161.082Z" fill="white"/>
</g>
<path d="M230.001 300.977C229.996 300.578 230.068 300.181 230.215 299.812C230.362 299.442 230.58 299.108 230.856 298.83C231.132 298.551 231.459 298.334 231.819 298.192C232.178 298.05 232.562 297.985 232.946 298.003C233.326 297.987 233.706 298.055 234.06 298.202C234.414 298.348 234.734 298.57 235 298.854L234.623 299.267C234.407 299.038 234.148 298.859 233.862 298.739C233.576 298.62 233.269 298.563 232.962 298.573C232.343 298.573 231.75 298.828 231.312 299.283C230.875 299.738 230.629 300.355 230.629 300.998C230.629 301.641 230.875 302.258 231.312 302.713C231.75 303.168 232.343 303.423 232.962 303.423C233.27 303.433 233.578 303.376 233.864 303.255C234.15 303.134 234.408 302.952 234.623 302.721L235 303.134C234.734 303.421 234.413 303.646 234.058 303.795C233.702 303.943 233.321 304.013 232.938 303.997C232.55 304.014 232.164 303.948 231.803 303.802C231.441 303.657 231.113 303.435 230.837 303.152C230.562 302.869 230.345 302.529 230.201 302.155C230.058 301.781 229.99 301.38 230.001 300.977Z" fill="#2A3442"/>
<path d="M241 298V304H240.374V301.231H236.635V304H236V298H236.635V300.672H240.374V298H241Z" fill="#2A3442"/>
<path d="M248 303.449V304H243V298H247.845V298.547H243.745V300.665H247.4V301.208H243.745V303.436L248 303.449Z" fill="#2A3442"/>
<path d="M249.001 300.977C248.996 300.578 249.068 300.181 249.216 299.812C249.363 299.442 249.58 299.108 249.856 298.83C250.132 298.551 250.46 298.334 250.819 298.192C251.178 298.05 251.562 297.985 251.946 298.003C252.326 297.987 252.706 298.055 253.06 298.202C253.414 298.348 253.734 298.57 254 298.854L253.623 299.267C253.407 299.038 253.148 298.859 252.862 298.739C252.576 298.62 252.27 298.563 251.962 298.573C251.343 298.573 250.75 298.828 250.312 299.283C249.875 299.738 249.629 300.355 249.629 300.998C249.629 301.641 249.875 302.258 250.312 302.713C250.75 303.168 251.343 303.423 251.962 303.423C252.27 303.433 252.578 303.376 252.864 303.255C253.15 303.134 253.408 302.952 253.623 302.721L254 303.134C253.734 303.421 253.413 303.646 253.058 303.795C252.702 303.943 252.321 304.013 251.938 303.997C251.551 304.014 251.164 303.948 250.803 303.802C250.441 303.657 250.113 303.435 249.837 303.152C249.562 302.869 249.345 302.529 249.202 302.155C249.058 301.781 248.99 301.38 249.001 300.977Z" fill="#2A3442"/>
<path d="M257.834 301.176L256.628 302.416V303.996H256V298H256.628V301.625L260.104 298H260.82L258.257 300.714L261 304H260.25L257.834 301.176Z" fill="#2A3442"/>
<path d="M269 298V304H268.479L264.635 299.131V304H264V298H264.521L268.378 302.865V298H269Z" fill="#2A3442"/>
<path d="M275.415 300.999H275.976V303.249C275.405 303.752 274.681 304.018 273.938 303.998C273.557 304.013 273.178 303.947 272.822 303.803C272.466 303.659 272.141 303.44 271.867 303.161C271.593 302.881 271.375 302.545 271.226 302.174C271.077 301.803 271 301.404 271 301.001C271 300.597 271.077 300.198 271.226 299.827C271.375 299.456 271.593 299.121 271.867 298.841C272.141 298.561 272.466 298.343 272.822 298.199C273.178 298.055 273.557 297.988 273.938 298.003C274.317 297.984 274.696 298.048 275.051 298.191C275.406 298.334 275.729 298.553 276 298.835L275.635 299.231C275.367 298.925 275.032 298.696 274.659 298.563C274.286 298.43 273.888 298.398 273.501 298.47C273.113 298.542 272.749 298.715 272.441 298.974C272.133 299.233 271.891 299.57 271.737 299.953C271.584 300.336 271.523 300.754 271.561 301.169C271.599 301.583 271.734 301.981 271.954 302.326C272.175 302.671 272.473 302.953 272.822 303.144C273.171 303.336 273.56 303.432 273.953 303.424C274.471 303.443 274.981 303.284 275.407 302.97L275.415 300.999Z" fill="#2A3442"/>
<path d="M278 303.493C277.999 303.429 278.011 303.365 278.035 303.305C278.06 303.245 278.096 303.191 278.142 303.145C278.188 303.099 278.243 303.063 278.304 303.038C278.364 303.013 278.43 303 278.495 303C278.629 303 278.758 303.052 278.852 303.144C278.947 303.237 279 303.362 279 303.493C279.001 303.626 278.949 303.753 278.854 303.848C278.76 303.943 278.631 303.998 278.495 304C278.429 303.999 278.363 303.985 278.302 303.959C278.241 303.932 278.186 303.895 278.14 303.848C278.094 303.8 278.058 303.745 278.034 303.684C278.01 303.623 277.998 303.558 278 303.493Z" fill="#2A3442"/>
<path d="M281 303.493C280.999 303.429 281.011 303.365 281.035 303.305C281.06 303.245 281.096 303.191 281.142 303.145C281.188 303.099 281.243 303.063 281.304 303.038C281.364 303.013 281.43 303 281.495 303C281.629 303 281.758 303.052 281.852 303.144C281.947 303.237 282 303.362 282 303.493C282.001 303.626 281.949 303.753 281.854 303.848C281.76 303.943 281.631 303.998 281.495 304C281.429 303.999 281.363 303.985 281.302 303.959C281.241 303.932 281.186 303.895 281.14 303.848C281.094 303.8 281.058 303.745 281.034 303.684C281.01 303.623 280.998 303.558 281 303.493Z" fill="#2A3442"/>
<path d="M310.138 263H201.862C199.177 263 197 265.131 197 267.76V281.24C197 283.869 199.177 286 201.862 286H310.138C312.823 286 315 283.869 315 281.24V267.76C315 265.131 312.823 263 310.138 263Z" fill="#F7F6FB"/>
<path d="M258.108 263H201.892C199.19 263 197 265.131 197 267.76V281.24C197 283.869 199.19 286 201.892 286H258.108C260.81 286 263 283.869 263 281.24V267.76C263 265.131 260.81 263 258.108 263Z" fill="#2B378B"/>
<path d="M291 275.93C291 277.092 290.175 277.997 288.506 277.997C288.045 278.015 287.585 277.941 287.154 277.78C286.724 277.62 286.331 277.376 286 277.063L286.264 276.674C286.554 276.959 286.903 277.182 287.286 277.33C287.67 277.477 288.081 277.545 288.494 277.53C289.809 277.53 290.481 276.885 290.481 275.963C290.481 274.97 289.86 274.362 287.928 274.362H286.481L286.86 271H290.638V271.459H287.298L287.021 273.907H288.043C290.209 273.895 291 274.697 291 275.93Z" fill="#2B378B"/>
<path d="M296 275.93C296 277.092 295.175 277.998 293.502 277.998C293.042 278.015 292.583 277.94 292.153 277.78C291.722 277.619 291.33 277.375 291 277.063L291.264 276.674C291.554 276.959 291.903 277.183 292.286 277.33C292.67 277.477 293.081 277.546 293.494 277.53C294.809 277.53 295.481 276.885 295.481 275.963C295.481 274.97 294.86 274.362 292.928 274.362H291.481L291.86 271H295.638V271.459H292.294L292.021 273.907H293.038C295.204 273.895 296 274.697 296 275.93Z" fill="#2B378B"/>
<path d="M297 272.867C297 271.742 297.69 271 298.692 271C299.694 271 300.398 271.742 300.398 272.867C300.398 273.993 299.694 274.735 298.692 274.735C297.69 274.735 297 273.997 297 272.867ZM299.979 272.867C299.979 271.907 299.464 271.334 298.692 271.334C297.92 271.334 297.418 271.919 297.418 272.867C297.418 273.816 297.933 274.401 298.692 274.401C299.451 274.401 299.979 273.828 299.979 272.867ZM303.396 271.037H303.855L298.591 277.963H298.131L303.396 271.037ZM301.598 276.132C301.598 275.003 302.306 274.261 303.303 274.261C304.301 274.261 305 275.003 305 276.132C305 277.262 304.306 278 303.303 278C302.301 278 301.598 277.258 301.598 276.132ZM304.582 276.132C304.582 275.18 304.067 274.599 303.303 274.599C302.54 274.599 302.016 275.172 302.016 276.132C302.016 277.093 302.536 277.666 303.303 277.666C304.071 277.666 304.582 277.081 304.582 276.132Z" fill="#2B378B"/>
<g opacity="0.2">
<path d="M225.649 262.679L216.858 285.782H223.318L231.506 262.679H225.649Z" fill="white"/>
</g>
<g opacity="0.2">
<path d="M241.488 262.679L232.701 285.782H239.157L247.344 262.679H241.488Z" fill="white"/>
</g>
<g opacity="0.2">
<path d="M257.007 264.414L248.807 285.92H252.653C253.673 285.695 254.667 285.364 255.618 284.932L261.254 269.029C260.254 267.155 258.792 265.567 257.007 264.414Z" fill="white"/>
</g>
<g opacity="0.2">
<path d="M210.25 262.667L202.171 283.914C203.888 285.033 205.872 285.675 207.92 285.773L216.12 262.667H210.25Z" fill="white"/>
</g>
<path d="M303.783 285.775C304.669 285.72 305.548 285.591 306.413 285.389C308.894 284.751 311.075 283.262 312.578 281.178C313.667 279.689 314.355 277.943 314.577 276.109C314.681 275.059 314.704 274.002 314.646 272.949C314.61 271.815 314.39 270.694 313.994 269.631C313.334 267.806 312.199 266.191 310.708 264.954C309.217 263.716 307.424 262.902 305.514 262.594C304.146 262.373 302.686 262.473 301.197 262.451L208.246 262.529C207.14 262.545 206.041 262.716 204.982 263.036C203.936 263.38 202.947 263.877 202.046 264.511C200.262 265.78 198.906 267.567 198.16 269.631C196.865 273.703 197.297 278.616 200.138 281.772C201.505 283.363 203.306 284.518 205.319 285.094C207.288 285.696 209.386 285.48 211.45 285.527H223.539L265.326 285.579L293.498 285.662L301.158 285.709L303.153 285.736C303.584 285.736 303.831 285.761 303.831 285.761C303.831 285.761 303.602 285.762 303.153 285.788L301.158 285.814L293.498 285.861L265.326 285.944L223.539 286H211.45H208.345C207.276 286 206.211 285.854 205.18 285.566C203.062 284.955 201.168 283.734 199.733 282.053C198.298 280.372 197.385 278.306 197.107 276.109C196.996 275 196.971 273.884 197.033 272.771C197.078 271.636 197.304 270.516 197.702 269.454C198.487 267.285 199.914 265.408 201.791 264.077C202.735 263.413 203.771 262.893 204.865 262.533C205.975 262.197 207.126 262.018 208.285 262L301.236 262.078C302.717 262.1 304.18 262.004 305.609 262.243C307.573 262.566 309.416 263.411 310.945 264.691C312.474 265.97 313.634 267.637 314.305 269.519C315.708 274.124 314.879 278.624 312.777 281.282C311.238 283.386 309.006 284.873 306.477 285.48C306.103 285.575 305.722 285.643 305.337 285.683C305.061 285.73 304.78 285.754 304.5 285.753C304.012 285.783 303.783 285.775 303.783 285.775Z" fill="#2A3442"/>
<path d="M201.692 386.77V395.372C201.692 395.541 201.646 395.707 201.56 395.852C201.474 395.998 201.35 396.118 201.202 396.199C201.054 396.281 200.886 396.321 200.717 396.316C200.548 396.311 200.383 396.26 200.24 396.17L193.473 391.871C193.337 391.786 193.225 391.668 193.147 391.528C193.07 391.388 193.029 391.231 193.029 391.071C193.029 390.911 193.07 390.753 193.147 390.613C193.225 390.473 193.337 390.355 193.473 390.27L200.24 385.967C200.384 385.876 200.549 385.826 200.718 385.821C200.888 385.816 201.056 385.856 201.204 385.939C201.353 386.021 201.476 386.141 201.562 386.287C201.648 386.434 201.692 386.6 201.692 386.77Z" fill="#E9E4F1"/>
<path d="M257.306 390.993C257.303 392.166 256.952 393.312 256.298 394.286C255.644 395.259 254.715 396.018 253.63 396.464C252.545 396.911 251.352 397.026 250.201 396.795C249.05 396.564 247.994 395.998 247.165 395.167C246.337 394.336 245.773 393.279 245.546 392.128C245.318 390.977 245.437 389.785 245.888 388.702C246.338 387.618 247.1 386.693 248.076 386.042C249.053 385.392 250.2 385.045 251.374 385.046C252.154 385.046 252.927 385.201 253.648 385.5C254.368 385.799 255.023 386.238 255.574 386.79C256.125 387.342 256.561 387.998 256.858 388.719C257.155 389.44 257.307 390.213 257.306 390.993Z" fill="#E9E4F1"/>
<path d="M309.975 385.82H300.792C300.304 385.82 299.908 386.216 299.908 386.704V395.905C299.908 396.393 300.304 396.789 300.792 396.789H309.975C310.463 396.789 310.859 396.393 310.859 395.905V386.704C310.859 386.216 310.463 385.82 309.975 385.82Z" fill="#E9E4F1"/>
<path d="M421.364 262C421.764 258.043 422.148 254.059 421.943 250.081C421.737 246.102 420.915 242.097 419.062 238.71C418.78 238.196 416.569 234.822 416.059 235.007C415.678 235.137 417.269 238.39 417.148 238.796C415.979 242.684 416.242 247.005 417.246 250.966C418.254 254.806 419.635 258.507 421.364 262Z" fill="#2A3442"/>
<path d="M404.092 287.62C403.501 284.864 403.028 282.692 403.006 282.697C402.984 282.701 393.29 283.657 390.757 274.39C389.532 269.916 387.768 260.493 386.269 251.944C385.491 247.516 386.416 242.957 388.862 239.178C391.307 235.398 395.093 232.675 399.465 231.55L400.364 231.316C410.227 229.373 417.392 236.629 419.048 246.497L426 280.832L410.697 297L404.092 287.62Z" fill="#E2DCED"/>
<path d="M403 282.555C403 282.555 408.853 281.406 414 276C414 276 412.893 283.471 403.553 285L403 282.555Z" fill="#D4BDBF"/>
<path d="M391.031 259.206C391.126 259.471 391.366 259.7 391.699 259.843C392.032 259.987 392.432 260.034 392.815 259.975C393.004 259.953 393.184 259.905 393.346 259.833C393.507 259.761 393.646 259.667 393.754 259.556C393.862 259.446 393.936 259.322 393.973 259.191C394.01 259.06 394.009 258.925 393.969 258.794C393.876 258.529 393.637 258.3 393.305 258.156C392.972 258.013 392.572 257.966 392.19 258.025C392.001 258.047 391.82 258.095 391.658 258.167C391.496 258.239 391.357 258.333 391.248 258.443C391.14 258.553 391.065 258.678 391.027 258.809C390.99 258.94 390.991 259.076 391.031 259.206Z" fill="#2A3442"/>
<path d="M389.052 254.989C389.288 255.107 390.213 254.204 391.842 253.862C393.471 253.52 394.868 253.933 394.991 253.74C395.055 253.65 394.775 253.406 394.155 253.21C393.326 252.967 392.424 252.934 391.571 253.115C390.724 253.289 389.967 253.672 389.411 254.212C389.003 254.62 388.934 254.946 389.052 254.989Z" fill="#2A3442"/>
<path d="M404.032 256.812C404.127 257.208 404.366 257.549 404.698 257.764C405.03 257.979 405.428 258.051 405.81 257.964C405.999 257.932 406.181 257.859 406.343 257.751C406.505 257.643 406.645 257.502 406.753 257.336C406.862 257.17 406.936 256.983 406.973 256.786C407.01 256.589 407.009 256.385 406.968 256.189C406.874 255.793 406.635 255.45 406.303 255.235C405.971 255.02 405.572 254.949 405.19 255.037C405.001 255.069 404.819 255.142 404.657 255.25C404.495 255.358 404.355 255.499 404.247 255.665C404.138 255.831 404.064 256.018 404.027 256.215C403.989 256.412 403.991 256.615 404.032 256.812Z" fill="#2A3442"/>
<path d="M403.047 251.989C403.284 252.107 404.214 251.204 405.839 250.862C407.465 250.52 408.868 250.933 408.991 250.736C409.055 250.65 408.775 250.406 408.154 250.21C407.325 249.967 406.422 249.934 405.569 250.115C404.723 250.288 403.967 250.67 403.412 251.208C403.013 251.62 402.934 251.938 403.047 251.989Z" fill="#2A3442"/>
<path d="M401 264.36C401 264.283 400.05 264.36 398.551 264.531C398.177 264.588 397.811 264.6 397.68 264.385C397.554 264.036 397.542 263.66 397.645 263.306C397.758 262.389 397.88 261.433 398.007 260.427C398.486 256.355 398.73 253.016 398.551 253C398.373 252.984 397.846 256.282 397.371 260.37C397.263 261.374 397.159 262.335 397.057 263.253C396.94 263.722 397.005 264.216 397.24 264.645C397.327 264.754 397.439 264.842 397.568 264.903C397.698 264.965 397.84 264.998 397.985 264.999C398.202 265.004 398.419 264.981 398.63 264.93C400.107 264.653 401.013 264.437 401 264.36Z" fill="#2A3442"/>
<path d="M405.477 265.003C405.245 265.05 405.634 266.573 404.631 267.982C403.629 269.391 401.958 269.655 402.001 269.872C402.001 269.974 402.424 270.076 403.126 269.919C404.015 269.697 404.8 269.168 405.342 268.425C405.864 267.71 406.089 266.818 405.968 265.939C405.845 265.309 405.579 264.965 405.477 265.003Z" fill="#2A3442"/>
<path d="M402.027 246.89C402.28 247.229 403.718 246.699 405.517 246.476C407.316 246.253 408.854 246.356 408.994 245.967C409.052 245.781 408.705 245.492 408.038 245.269C407.153 245.008 406.215 244.936 405.296 245.058C404.376 245.179 403.499 245.492 402.731 245.972C402.153 246.36 401.914 246.728 402.027 246.89Z" fill="#2A3442"/>
<path d="M389.083 250.917C389.424 251.255 390.344 250.483 391.548 250.066C392.752 249.648 393.846 249.609 393.992 249.091C394.049 248.843 393.801 248.471 393.275 248.223C392.575 247.938 391.825 247.926 391.12 248.188C390.415 248.45 389.787 248.974 389.318 249.694C388.981 250.268 388.928 250.748 389.083 250.917Z" fill="#2A3442"/>
<path d="M420 253.99C420.151 253.88 426.239 250.543 427.782 256.776C429.324 263.01 422.188 263.136 422.129 262.959C422.069 262.782 420 253.99 420 253.99Z" fill="#E2DCED"/>
<path d="M423.571 259.707C423.593 259.68 423.697 259.752 423.909 259.79C424.2 259.837 424.5 259.783 424.745 259.639C425.368 259.291 425.697 258.239 425.468 257.221C425.36 256.737 425.129 256.281 424.792 255.886C424.689 255.722 424.541 255.583 424.361 255.481C424.181 255.38 423.975 255.318 423.762 255.303C423.628 255.297 423.496 255.331 423.388 255.4C423.28 255.469 423.202 255.568 423.169 255.681C423.125 255.852 423.195 255.958 423.169 255.973C423.143 255.988 423.009 255.908 423 255.666C423 255.52 423.058 255.378 423.164 255.265C423.311 255.114 423.519 255.019 423.745 255C424.02 254.994 424.292 255.05 424.535 255.162C424.779 255.274 424.985 255.438 425.135 255.64C425.533 256.072 425.805 256.582 425.927 257.127C426.174 258.262 425.784 259.45 424.918 259.866C424.757 259.944 424.578 259.989 424.395 259.998C424.211 260.007 424.027 259.98 423.857 259.919C423.598 259.839 423.55 259.718 423.571 259.707Z" fill="#D4BDBF"/>
<path d="M388.302 240.719C387.145 240.376 389.524 236.368 391.813 234.673C395.276 232.098 400.904 229.777 404.66 230.017C409.181 230.305 413.178 231.656 416.156 235.063C419.133 238.47 420.914 242.787 421.749 247.246C422.002 248.597 422.179 250.035 421.693 251.326C421.103 252.927 419.585 254.184 420.079 256.111C420.18 256.457 420.211 256.82 420.169 257.178C420.128 257.536 420.016 257.882 419.838 258.196C418.939 259.69 417.257 258.831 416.349 257.806C414.405 255.613 413.604 252.657 412.86 249.837C412.335 247.825 411.802 245.769 411.952 243.693C412.034 242.564 412.318 241.453 412.339 240.324C412.361 239.196 412.06 237.977 411.199 237.239C411 237.08 410.789 236.936 410.567 236.81C409.507 236.227 408.311 235.936 407.102 235.966C405.892 235.996 404.712 236.347 403.683 236.981C400.362 239.024 394.648 242.242 392.768 241.371C390.079 240.118 389.283 239.093 389.283 239.093L388.302 240.719Z" fill="#2A3442"/>
<path d="M403.178 226.014C403.611 225.967 414.497 225.69 419.009 232.603C423.52 239.516 423.36 242.026 423.36 242.026C423.822 242.18 424.259 242.397 424.659 242.671C425.213 243.06 425.201 245.596 423.793 245.66C412.618 243.781 400.61 246.309 387.465 250.02L377.289 252.428C374.531 253.461 373.34 252.966 374.362 251.963C375.142 251.194 382.386 245.985 382.386 245.985L383.685 244.447L386.404 237.675C386.404 237.675 385.681 237.005 386.538 236.087C387.396 235.169 394.492 226.953 403.178 226.014Z" fill="#2B378B"/>
<path d="M384 245C384 245 384.136 244.97 384.387 244.891L385.491 244.533C386.447 244.2 387.846 243.803 389.579 243.336C394.112 242.192 398.722 241.515 403.355 241.314C407.989 241.121 412.629 241.239 417.251 241.667C419.027 241.811 420.463 241.96 421.458 242.059L422.601 242.168H423C423 242.168 422.864 242.139 422.601 242.104L421.462 241.955C420.472 241.836 419.04 241.662 417.263 241.498C412.636 241.029 407.989 240.891 403.347 241.085C398.704 241.284 394.087 241.982 389.554 243.172C387.678 243.672 385.824 244.283 384 245Z" fill="#2A3442"/>
<g opacity="0.3">
<path d="M413.8 228.354C413.8 228.354 402.299 229.363 397.953 232.995L398.453 232.563L394.297 235.803C393.598 236.346 392.761 236.929 391.893 236.717C391.893 236.717 393.822 233.845 398.052 231.11C402.281 228.375 409.446 225.847 413.8 228.354Z" fill="black"/>
</g>
<path d="M414 227.943C413.63 227.779 413.25 227.644 412.861 227.539C411.804 227.234 410.717 227.057 409.621 227.013C407.995 226.947 406.368 227.126 404.791 227.544C402.839 228.013 401.007 228.91 399.421 230.174C398.621 230.844 397.86 231.563 397.142 232.327C396.454 233.068 395.752 233.743 395.144 234.457C394.608 235.151 394.015 235.797 393.371 236.386C392.789 236.871 392.105 237.209 391.373 237.373C388.707 238.109 386.926 237.969 387.002 237.763C387.071 237.847 387.166 237.905 387.27 237.925C387.564 237.987 387.864 238.011 388.163 237.995C389.259 237.951 390.347 237.784 391.407 237.496C392.157 237.333 392.86 236.994 393.461 236.505C394.114 235.911 394.717 235.262 395.263 234.563C395.863 233.866 396.573 233.186 397.262 232.45C397.974 231.691 398.731 230.978 399.528 230.314C401.095 229.07 402.903 228.185 404.829 227.719C406.391 227.297 408.003 227.108 409.617 227.158C410.706 227.19 411.788 227.346 412.844 227.623C413.218 227.719 413.507 227.807 413.694 227.873C413.795 227.901 413.897 227.925 414 227.943Z" fill="#2A3442"/>
<g opacity="0.3">
<path d="M420.861 235.824C418.876 236.312 417.244 236.178 415.168 236.256C412.954 236.329 410.788 236.493 408.574 236.459C406.895 236.433 404.94 236.523 403.628 235.648C403.648 236.055 403.773 236.45 403.991 236.794C404.209 237.139 404.512 237.421 404.871 237.615C405.618 238.046 407.745 238.231 408.608 238.249C413.511 238.335 416.903 238.369 421.75 237.494C421.491 236.921 421.194 236.366 420.861 235.833" fill="black"/>
</g>
<path d="M418.362 232C419.703 232.237 420.529 232.42 420.827 233.541C421.072 234.453 421.164 235.671 420.358 236.067C420.105 236.174 419.836 236.227 419.566 236.222L405.743 236.97C405.278 237.055 404.8 236.957 404.394 236.692C403.826 236.209 403.913 235.169 404.394 234.581C404.924 234.038 405.583 233.672 406.296 233.528C410.243 232.347 414.273 231.991 418.366 232" fill="#2B378B"/>
<path d="M403.886 237C403.656 236.884 403.465 236.709 403.334 236.494C403.17 236.199 403.096 235.866 403.119 235.533C403.143 235.2 403.263 234.879 403.466 234.607C404.013 233.941 405.053 233.509 406.201 233.3C407.35 233.091 408.668 232.864 410.035 232.642C412.363 232.279 414.72 232.116 417.078 232.154C417.99 232.154 418.71 232.232 419.216 232.276L419.795 232.332C419.863 232.337 419.932 232.337 420 232.332C420 232.332 419.932 232.332 419.804 232.289L419.225 232.197C418.724 232.136 417.99 232.053 417.083 232.019C414.715 231.945 412.346 232.091 410.008 232.454C408.64 232.655 407.341 232.89 406.165 233.126C404.989 233.361 403.927 233.805 403.352 234.529C403.139 234.819 403.017 235.161 403.002 235.515C402.986 235.869 403.078 236.219 403.266 236.525C403.369 236.688 403.513 236.824 403.685 236.922C403.746 236.96 403.814 236.987 403.886 237Z" fill="#2A3442"/>
<path d="M385.906 240.468L394 238L393.894 240.726L385 243L385.906 240.468Z" fill="white"/>
<path d="M401 244.005C401 243.937 396.96 244.553 391.991 245.375C387.022 246.197 382.991 246.926 383 246.995C383.009 247.063 387.04 246.453 392.009 245.625C396.978 244.796 401.004 244.086 401 244.005Z" fill="#2A3442"/>
<path d="M376.008 296.782L384.58 318.088L388.346 301.715C389.126 298.555 390.664 295.647 392.82 293.257C393.583 292.44 394.407 291.685 395.284 291L402 322.593C402 322.593 396.331 340.581 382.775 340.996C378.838 341.114 372.854 338.551 370.977 334.051C370.049 331.825 358 302.476 358 302.476L376.008 296.782Z" fill="#E9E4F1"/>
<path d="M379.795 313.976L380.3 310.817L369.829 302L367.972 304.075L362 310.857L384.555 329L390 322.521L379.795 313.976Z" fill="#2A3442"/>
<path d="M461.779 352.819C462.068 348.476 456.882 298.577 456.882 298.577L445.762 281.813L424.551 278C424.227 280.636 422.567 287.52 413.822 290.06C409.322 291.363 404.426 286.786 404.426 286.786L396 290.959L399.206 314.324L403.336 340.989L462 358C462 358 461.498 357.184 461.779 352.819Z" fill="#E9E4F1"/>
<path d="M405.669 343.603L403 311.358L434.17 305L462.178 346.739L463 361L419.922 359.641L405.669 343.603Z" fill="#2B378B"/>
<path d="M398 302C398.151 302.49 398.262 302.994 398.33 303.506C398.519 304.486 398.753 305.905 399.018 307.667C399.554 311.186 400.15 316.072 400.734 321.47C401.317 326.867 401.861 331.758 402.312 335.285C402.529 336.982 402.714 338.388 402.847 339.46C402.939 339.967 402.99 340.483 403 341C402.849 340.51 402.738 340.006 402.67 339.494C402.481 338.518 402.247 337.095 401.982 335.337C401.446 331.818 400.854 326.933 400.266 321.53C399.679 316.128 399.139 311.247 398.692 307.719C398.471 306.022 398.29 304.617 398.153 303.54C398.061 303.033 398.01 302.517 398 302Z" fill="#2A3442"/>
<path d="M379.651 314C379.651 314 383.907 314.509 385.403 315.251C386.899 315.993 391.234 318.716 391.234 318.716L400 320.284L397.905 334L392.044 331.243L379.124 332.461C379.124 332.461 376.312 331.852 376.307 329.959C376.307 329.959 374.036 328.737 373.803 326.369C373.803 326.369 370.344 322.065 370.036 321.235C369.728 320.405 371.48 318.441 371.48 318.441C371.48 318.441 375.167 321.402 377.412 321.865C379.656 322.328 381.68 321.494 381.874 320.13C382.266 317.34 379.651 314 379.651 314Z" fill="#E2DCED"/>
<g opacity="0.3">
<path d="M402.48 338.177C402.48 338.177 431.327 348.529 441.007 347.903C449.207 347.381 453.242 343.543 453.889 338.177C454.537 332.811 455.443 310.023 455.443 310.023L439.967 336.857L402.324 335.675L402.48 338.177Z" fill="black"/>
</g>
<path d="M449.058 337.051C451.125 331.133 453.402 319.756 453.402 319.756L456.994 300.807C457.116 295.863 455.46 291.04 452.326 287.215C449.971 284.395 446.668 281.983 442.276 282C432.962 282.043 433.294 299.226 433.294 299.226L430.758 323.808L394.308 317.865L392 335.393L434.883 344.626C436.677 345.071 438.546 345.119 440.361 344.769C442.176 344.419 443.894 343.678 445.394 342.597C447.086 341.331 448.231 339.449 449.058 337.051Z" fill="#E9E4F1"/>
<path d="M444 283.066C444 283.147 443.203 283.177 441.975 283.493C440.381 283.88 438.905 284.596 437.658 285.588C436.411 286.58 435.427 287.821 434.781 289.217C434.271 290.287 434.118 291.013 434.035 291C433.952 290.987 433.993 290.236 434.424 289.089C435.004 287.589 435.997 286.254 437.306 285.213C438.615 284.172 440.194 283.462 441.891 283.151C443.184 282.917 444 283.011 444 283.066Z" fill="#2A3442"/>
<path d="M457 300.577C457 300.577 457 300.732 456.94 301.033C456.88 301.335 456.807 301.796 456.713 302.364C456.498 303.558 456.189 305.272 455.795 307.474C455.4 309.675 454.894 312.411 454.315 315.556C453.736 318.7 453.062 322.289 452.17 326.218C451.719 328.186 451.23 330.241 450.66 332.365C450.377 333.434 450.064 334.519 449.725 335.609C449.396 336.737 448.98 337.837 448.481 338.9C447.954 340.012 447.237 341.023 446.362 341.886C445.426 342.743 444.355 343.438 443.192 343.941C440.757 344.981 438.067 345.264 435.471 344.751L401.712 337.462L392.223 335.407L392 335.355L392.03 335.131C392.832 329.1 393.604 323.211 394.346 317.598L394.376 317.356L394.617 317.395L430.915 323.426L430.718 323.577C431.533 315.952 432.189 309.791 432.648 305.557C432.88 303.459 433.077 301.826 433.193 300.693C433.257 300.155 433.309 299.737 433.347 299.431C433.363 299.286 433.386 299.142 433.416 299C433.416 299 433.416 299.146 433.394 299.431C433.373 299.715 433.334 300.159 433.287 300.697C433.184 301.83 433.03 303.467 432.832 305.57C432.403 309.835 431.812 315.978 431.057 323.607V323.792L430.877 323.762L394.561 317.882L394.831 317.679C394.098 323.28 393.33 329.156 392.541 335.213L392.347 334.937L401.832 336.992L435.574 344.315C438.083 344.817 440.684 344.552 443.042 343.553C444.16 343.075 445.191 342.413 446.092 341.593C446.936 340.768 447.628 339.799 448.138 338.732C448.63 337.69 449.043 336.611 449.373 335.506C449.712 334.416 450.029 333.352 450.312 332.283C450.892 330.164 451.394 328.118 451.853 326.157C452.783 322.237 453.495 318.666 454.087 315.517C454.679 312.368 455.22 309.675 455.649 307.457C456.078 305.238 456.421 303.549 456.657 302.364C456.773 301.8 456.863 301.361 456.931 301.042C457 300.723 457 300.577 457 300.577Z" fill="#2A3442"/>
<path d="M434.99 329.997C434.87 330.078 433.74 328.491 432.468 326.443C431.826 325.435 431.286 324.447 430.893 323.81C430.67 323.475 430.36 323.217 430 323.069C430 323.036 430.116 322.974 430.353 323.012C430.672 323.099 430.956 323.292 431.165 323.563C431.78 324.39 432.355 325.25 432.888 326.139C434.173 328.187 435.106 329.912 434.99 329.997Z" fill="#2A3442"/>
<path d="M428.921 307C428.921 307 422.162 290.66 429.208 282.663C430.031 281.747 431.07 281.03 432.239 280.572C433.409 280.113 434.676 279.926 435.936 280.026C438.156 280.185 441.107 280.6 443 281.636C443 281.636 437.008 280.613 434.501 283.147C432.657 285.009 428.221 291.084 432.904 305.57L428.921 307Z" fill="#2B378B"/>
<path d="M403.02 313L396 290.956C396.699 289.409 398.742 288.805 400.218 289.054L407 313H403.02Z" fill="#2B378B"/>
<path d="M380.998 319.997C380.92 320.101 377.495 317.508 373.354 314.189C369.213 310.87 365.919 308.107 366.002 308.003C366.084 307.899 369.509 310.492 373.65 313.811C377.791 317.13 381.081 319.889 380.998 319.997Z" fill="#4D5E76"/>
<path d="M363.834 309L362 307.168L362.881 306L365 307.55L363.834 309Z" fill="#4D5E76"/>
<path d="M346.109 279.734C345.888 278.873 346.006 277.959 346.439 277.185C346.871 276.411 347.583 275.838 348.425 275.587C351.962 274.536 357.426 273.213 358.915 274.592C361.172 276.677 366.56 281.74 366.56 281.74L374 297.407L361.944 301L358.531 289.091C358.531 289.091 353.045 289.39 353.532 286.41C353.532 286.41 350.789 285.316 351.181 283.63C351.573 281.943 353.826 281.546 353.826 281.546L353.335 278.566L346.138 279.863L346.109 279.734Z" fill="#E2DCED"/>
<path d="M351.289 284H345V277H351.289C352.273 277 353.216 277.368 353.912 278.024C354.607 278.68 354.999 279.57 355 280.498C355 281.427 354.609 282.317 353.913 282.974C353.217 283.631 352.273 284 351.289 284Z" fill="#4D5E76"/>
<path d="M356.443 280.463L347.513 278.081C347.513 278.081 345.113 277.385 346.359 280.065C347.605 282.745 351.355 282.153 352.793 283.739C354.231 285.326 355.051 288.01 361 289" fill="#E2DCED"/>
<path d="M360.999 288.999C360.583 289.006 360.167 288.961 359.761 288.868C358.639 288.673 357.549 288.337 356.517 287.87C355.801 287.535 355.137 287.108 354.541 286.6C353.883 286.003 353.285 285.347 352.754 284.641C351.77 283.012 349.466 283.097 347.433 282.2C346.913 281.971 346.441 281.654 346.037 281.265C345.669 280.862 345.381 280.397 345.189 279.894C345.093 279.64 345.031 279.376 345.005 279.107C344.989 278.951 345.011 278.793 345.069 278.646C345.127 278.5 345.219 278.368 345.339 278.261C345.578 278.12 345.847 278.034 346.126 278.008C346.406 277.982 346.687 278.018 346.95 278.113L351.779 279.382L355.028 280.271C355.433 280.362 355.827 280.492 356.205 280.66C355.79 280.635 355.38 280.566 354.98 280.457L351.687 279.716L346.818 278.561C346.628 278.495 346.426 278.467 346.224 278.479C346.022 278.491 345.825 278.544 345.646 278.633C345.404 278.815 345.475 279.31 345.646 279.737C345.817 280.178 346.07 280.585 346.392 280.939C346.753 281.287 347.173 281.574 347.635 281.785C348.611 282.152 349.61 282.461 350.625 282.712C351.132 282.853 351.614 283.065 352.056 283.342C352.464 283.634 352.82 283.989 353.11 284.392C353.618 285.084 354.188 285.733 354.813 286.33C355.371 286.828 355.994 287.255 356.666 287.599C359.208 288.762 361.039 288.877 360.999 288.999Z" fill="#D4BDBF"/>
<path d="M360.584 334C359.476 333.967 358.394 333.655 357.441 333.095C356.487 332.535 355.694 331.745 355.135 330.799C353.686 328.417 353.537 325.085 354.744 322.313C354.823 322.131 354.907 321.958 354.995 321.788C354.964 321.71 354.929 321.637 354.898 321.563C354.244 319.953 354.134 318.188 354.02 316.479C353.66 310.813 353.335 305.543 353.01 300.272C352.685 295.001 352.36 289.709 352 284.03L352.492 284C352.847 289.678 353.172 294.958 353.502 300.242C353.831 305.525 354.152 310.783 354.507 316.448C354.613 318.071 354.718 319.75 355.297 321.251C355.903 320.153 356.92 319.334 358.13 318.969C358.552 318.877 358.99 318.874 359.414 318.961C359.837 319.048 360.238 319.222 360.589 319.472C360.93 319.702 361.216 320.002 361.428 320.352C361.641 320.701 361.774 321.092 361.818 321.498C361.856 321.93 361.797 322.365 361.645 322.772C361.493 323.18 361.253 323.549 360.94 323.853C360.635 324.168 360.265 324.413 359.855 324.572C359.445 324.731 359.004 324.8 358.565 324.773C357.085 324.63 355.965 323.519 355.284 322.331L355.21 322.504C354.059 325.137 354.2 328.3 355.565 330.547C357.001 332.911 359.82 334.078 362.125 333.262C364.431 332.447 366.191 329.731 366.455 326.634C366.67 324.101 366.042 321.346 364.532 318.205C363.908 316.904 363.188 315.641 362.49 314.414C361.792 313.186 361.041 311.854 360.4 310.51C359.877 309.544 359.577 308.476 359.522 307.382C359.522 306.336 360.022 305.022 361.115 304.61C361.392 304.524 361.686 304.506 361.971 304.556C362.257 304.607 362.526 304.725 362.755 304.901C362.984 305.076 363.167 305.304 363.287 305.565C363.408 305.825 363.463 306.111 363.447 306.397L362.96 306.349C362.975 306.143 362.936 305.937 362.847 305.75C362.758 305.563 362.621 305.402 362.45 305.282C362.291 305.152 362.1 305.064 361.897 305.025C361.694 304.987 361.484 304.999 361.287 305.061C360.448 305.378 360.013 306.467 360.013 307.382C360.074 308.406 360.362 309.404 360.856 310.306C361.489 311.607 362.222 312.908 362.933 314.171C363.645 315.433 364.356 316.683 364.988 317.993C366.534 321.211 367.184 324.066 366.956 326.669C366.718 329.436 365.199 332.69 362.301 333.709C361.75 333.904 361.169 334.002 360.584 334ZM355.543 321.801C356.246 323.216 357.41 324.174 358.595 324.287C358.962 324.302 359.328 324.241 359.67 324.108C360.011 323.975 360.321 323.773 360.579 323.515C360.837 323.257 361.038 322.949 361.168 322.609C361.298 322.27 361.355 321.908 361.335 321.545C361.297 321.209 361.185 320.885 361.008 320.595C360.83 320.305 360.592 320.056 360.308 319.867C360.014 319.656 359.679 319.508 359.325 319.433C358.97 319.359 358.603 319.358 358.248 319.433C357.212 319.689 356.25 320.535 355.543 321.801Z" fill="#4D5E76"/>
<path d="M429.38 421.309L453.757 412.976C453.757 412.976 470.418 434.946 475.073 433.841L460.606 386.019L422.087 397.445L429.38 421.309Z" fill="#4D5E76"/>
<path d="M447.212 398.815C447.211 398.313 447.397 397.828 447.733 397.455C448.069 397.082 448.531 396.846 449.031 396.793C449.533 396.775 450.023 396.949 450.4 397.282C450.776 397.614 451.011 398.079 451.054 398.579C451.097 399.58 450.109 400.757 449.116 400.714C448.124 400.672 447.018 399.604 447.226 398.622" fill="#E9E4F1"/>
<path d="M461.603 385.665L457.869 386.765L472.077 432.669C472.077 432.669 473.646 434.516 475.073 433.822L461.603 385.665Z" fill="#E9E4F1"/>
<path d="M453.748 413.827C453.98 413.747 453.748 412.547 454.136 411.172C454.523 409.798 455.336 408.886 455.18 408.702C455.024 408.518 453.762 409.269 453.318 410.946C452.874 412.622 453.55 413.94 453.748 413.827Z" fill="#2A3442"/>
<path d="M457.34 418.215C457.586 418.215 457.675 417.067 458.422 415.976C459.169 414.885 460.147 414.341 460.067 414.086C459.987 413.831 458.621 414.086 457.704 415.503C456.787 416.921 457.118 418.257 457.34 418.215Z" fill="#2A3442"/>
<path d="M464.212 419.249C464.212 419.023 462.931 419.051 461.849 420.033C460.766 421.016 460.573 422.268 460.8 422.305C461.027 422.343 461.504 421.465 462.416 420.671C463.328 419.878 464.259 419.485 464.212 419.249Z" fill="#2A3442"/>
<path d="M447.982 415.112C448.166 414.946 447.509 413.973 447.207 412.627C446.904 411.281 447.004 410.124 446.768 410.062C446.531 410.001 445.997 411.243 446.385 412.825C446.772 414.408 447.845 415.282 447.982 415.112Z" fill="#2A3442"/>
<path d="M413.696 362.823C412.832 362.584 375.102 403.215 374.242 409.927C373.383 416.639 374.756 422.501 379.215 426.282C383.673 430.063 434.449 417.676 434.449 417.676L429.645 396.326L448 390.13L431.584 360L413.696 362.823Z" fill="#2B378B"/>
<g opacity="0.3">
<path d="M404.892 372.093L403.684 373.387C403.684 373.387 425.293 396.045 431.922 395.734L442.535 392.141L406.636 370.143L404.892 372.093Z" fill="black"/>
</g>
<path d="M444.003 393.454C444.045 393.595 435.434 396.255 424.767 399.386C414.099 402.518 405.417 404.941 405.389 404.795C405.361 404.649 413.958 401.994 424.629 398.862C435.301 395.73 443.96 393.307 444.003 393.454Z" fill="#2A3442"/>
<path d="M392.444 396.009L400.478 421.456C400.478 421.456 377.296 438.149 378.322 442.995L428.24 429.216L417.37 389.066L392.444 396.009Z" fill="#4D5E76"/>
<path d="M415.305 415.031C415.826 415.045 416.324 415.25 416.703 415.607C417.082 415.964 417.317 416.449 417.361 416.968C417.364 417.486 417.171 417.985 416.82 418.366C416.469 418.747 415.987 418.98 415.47 419.018C414.43 419.018 413.234 417.993 413.305 416.954C413.376 415.915 414.511 414.814 415.522 415.064" fill="#E9E4F1"/>
<path d="M410.571 456.26L409.522 452.368L361.597 465.92C361.597 465.92 359.64 467.503 360.326 468.995L410.571 456.26Z" fill="#E9E4F1"/>
<path d="M381.604 447.422C381.679 447.663 382.927 447.422 384.34 447.895C385.753 448.367 386.703 449.194 386.878 449.038C387.053 448.882 386.325 447.574 384.6 447.054C382.875 446.534 381.485 447.215 381.604 447.422Z" fill="#2A3442"/>
<path d="M376.962 451.031C376.962 451.282 378.144 451.409 379.255 452.207C380.365 453.006 380.909 454.036 381.145 453.955C381.382 453.875 381.145 452.458 379.756 451.489C378.366 450.521 376.925 450.8 376.962 451.031Z" fill="#2A3442"/>
<path d="M375.719 458.117C375.956 458.117 375.96 456.794 374.963 455.637C373.966 454.48 372.685 454.258 372.638 454.489C372.591 454.72 373.493 455.24 374.292 456.204C375.091 457.167 375.474 458.159 375.719 458.117Z" fill="#2A3442"/>
<path d="M398.404 415.424C398.564 415.617 399.59 414.951 400.994 414.682C402.397 414.413 403.593 414.536 403.664 414.29C403.735 414.044 402.459 413.463 400.828 413.818C399.197 414.172 398.219 415.263 398.404 415.424Z" fill="#2A3442"/>
<g opacity="0.3">
<path d="M415.794 421.938L412.989 410.918L415.078 409.947L402.329 375.255L399.89 377.368L409.912 409.149L413.498 422.417L415.794 421.938Z" fill="black"/>
</g>
<path d="M385.776 336.398C383.316 335.868 380.771 335.867 378.311 336.396C375.85 336.924 373.53 337.97 371.502 339.465C368.098 342.049 365.256 346.14 366.175 352.604C368.222 366.966 386.518 416 386.518 416L411.846 408.365C411.992 408.317 412.134 407.899 412.052 408.029C411.846 408.365 399.208 367.517 399.526 367.978C399.843 368.439 425.077 388.899 435.555 392.654C446.317 396.53 456.968 391.896 462.093 384.705C464.549 381.259 464.721 366.139 462.093 358.146C462.093 358.146 389.025 337.367 387.66 336.855C387.042 336.662 386.413 336.51 385.776 336.398Z" fill="#2B378B"/>
<path d="M385 351C389.091 353.719 392.545 357.267 395.132 361.405C397.719 365.544 399.378 370.179 400 375" fill="#2B378B"/>
<path d="M463 383.751C463 383.751 462.902 383.916 462.692 384.237C462.38 384.706 462.04 385.157 461.674 385.584C460.224 387.224 458.55 388.645 456.703 389.805C453.772 391.706 450.486 392.975 447.049 393.532C444.888 393.885 442.687 393.915 440.517 393.623C438.061 393.313 435.675 392.581 433.463 391.456C432.27 390.936 431.132 390.238 429.917 389.614C428.749 388.912 427.526 388.232 426.324 387.448C423.911 385.927 421.422 384.289 418.898 382.495C413.833 378.941 408.52 374.924 403.019 370.487L400.957 368.797L399.927 367.93L399.653 367.679L399.516 367.549C399.602 367.575 399.276 367.432 399.7 367.605C400.029 367.254 399.794 367.432 399.867 367.393V367.467L400.051 368.117C400.587 369.85 401.127 371.619 401.672 373.425C402.79 377.001 403.931 380.667 405.094 384.423L412.469 407.823L412.541 408.061L412.31 408.131L386.756 415.931L386.533 416L386.452 415.779C384.827 411.355 383.133 406.64 381.443 401.86C377.782 391.46 374.304 381.303 371.232 371.38C369.692 366.418 368.264 361.517 367.117 356.646C366.98 356.035 366.822 355.433 366.69 354.822L366.356 352.98C366.107 351.762 365.988 350.52 366.001 349.275C366.005 346.798 366.708 344.375 368.028 342.29C370.698 338.199 375.185 335.79 379.634 335.179C381.844 334.867 384.092 334.964 386.268 335.465L387.864 335.898L389.404 336.362L392.441 337.281L414.783 344.041L447.13 353.86L455.921 356.555L458.201 357.27C458.714 357.431 458.975 357.526 458.975 357.526C458.975 357.526 458.705 357.465 458.188 357.318L455.891 356.651L447.074 354.051L414.672 344.379L392.295 337.675L389.254 336.765L387.714 336.301L386.174 335.911C384.048 335.426 381.852 335.336 379.693 335.647C375.356 336.258 370.98 338.615 368.414 342.58C367.143 344.592 366.467 346.93 366.467 349.319C366.454 350.536 366.573 351.75 366.822 352.941C366.929 353.548 367.04 354.155 367.152 354.761C367.263 355.368 367.43 355.97 367.579 356.577C368.726 361.43 370.146 366.323 371.699 371.28C374.77 381.19 378.252 391.361 381.909 401.739C383.599 406.506 385.293 411.229 386.918 415.649L386.615 415.497L412.173 407.723L412.011 408.031C409.474 399.928 407.019 392.097 404.666 384.601L401.244 373.594L399.632 368.277L399.443 367.61L399.422 367.514C399.495 367.454 399.246 367.588 399.584 367.224C400.012 367.415 399.726 367.293 399.833 367.341L399.944 367.441L400.17 367.649L401.193 368.515L403.25 370.205C408.734 374.647 414.03 378.673 419.078 382.239C421.593 384.033 424.07 385.68 426.474 387.205C427.667 387.976 428.882 388.657 430.041 389.372C431.247 389.996 432.381 390.698 433.566 391.213C435.744 392.335 438.097 393.068 440.521 393.38C442.665 393.681 444.842 393.662 446.98 393.324C450.394 392.79 453.664 391.554 456.588 389.692C458.434 388.556 460.114 387.165 461.58 385.558C461.953 385.145 462.302 384.711 462.628 384.258C462.88 383.903 463 383.751 463 383.751Z" fill="#2A3442"/>
<path d="M388.001 356.005C388.037 355.95 388.892 356.372 390.187 357.227C391.868 358.349 393.442 359.632 394.891 361.058C396.346 362.479 397.652 364.056 398.785 365.762C399.644 367.081 400.049 367.972 399.995 367.999C399.942 368.027 399.412 367.228 398.487 365.983C397.284 364.367 395.963 362.85 394.535 361.444C393.098 360.043 391.576 358.739 389.977 357.539C388.754 356.611 387.961 356.078 388.001 356.005Z" fill="#2A3442"/>
<path d="M397.012 354.001C397.064 353.975 397.417 354.694 397.878 355.914C398.465 357.504 398.934 359.14 399.279 360.809C399.629 362.476 399.856 364.171 399.96 365.876C400.032 367.168 399.996 367.996 399.935 368C399.79 368 399.636 364.781 398.818 360.916C398 357.051 396.874 354.078 397.012 354.001Z" fill="#2A3442"/>
<path d="M453 352.705L462.352 350L468.447 351.113L471.349 361.332C474.203 370.376 473.6 375.56 467.622 379.526C465.866 380.691 464.204 381.326 462.994 380.83C458.756 379.012 453 352.705 453 352.705Z" fill="#4D5E76"/>
<path d="M462 350.018L403 340L403.133 340.815L462 359V350.018Z" fill="#4D5E76"/>
<path d="M73.6852 392.415L67.2953 414.842C67.2953 414.842 87.6563 428.952 86.8717 433.213L43.4893 422.221L52.0342 386.869L73.6852 392.415Z" fill="#4D5E76"/>
<path d="M54.3502 409.538C53.898 409.563 53.471 409.754 53.1516 410.075C52.8322 410.396 52.643 410.824 52.6204 411.276C52.6223 411.728 52.798 412.162 53.1112 412.488C53.4244 412.815 53.8511 413.008 54.3029 413.029C55.2009 413.029 56.1934 412.084 56.1272 411.177C56.061 410.27 55.045 409.33 54.1753 409.552" fill="#E9E4F1"/>
<g opacity="0.6">
<path d="M43.4893 422.221L44.4911 418.692L85.7088 430.548C85.7088 430.548 87.4294 431.89 86.8717 433.213L43.4893 422.221Z" fill="white"/>
</g>
<path d="M68.0517 414.795C67.9902 415.008 66.9079 414.838 65.6885 415.268C64.4692 415.697 63.694 416.453 63.5239 416.321C63.3537 416.189 63.9683 415.027 65.4476 414.535C66.9269 414.044 68.1462 414.611 68.0517 414.795Z" fill="#2A3442"/>
<path d="M72.1303 417.851C72.1303 418.073 71.1189 418.206 70.1784 418.933C69.2378 419.661 68.7889 420.563 68.5809 420.501C68.373 420.44 68.5384 419.188 69.7247 418.31C70.911 417.431 72.1775 417.648 72.1303 417.851Z" fill="#2A3442"/>
<path d="M55.3682 450.025C55.165 450.025 55.1319 448.873 55.9685 447.838C56.805 446.804 57.9061 446.582 57.9534 446.785C58.0006 446.988 57.2304 447.46 56.5592 448.32C55.8881 449.18 55.5809 450.054 55.3682 450.025Z" fill="#2A3442"/>
<path d="M68.9496 409.519C68.8126 409.694 67.9146 409.15 66.6952 408.933C65.4758 408.716 64.4504 408.858 64.3842 408.645C64.318 408.432 65.4051 407.894 66.8371 408.173C68.2692 408.451 69.0961 409.377 68.9496 409.519Z" fill="#2A3442"/>
<path d="M58.4763 397.696L57.4694 421.016C57.4694 421.016 80.5383 429.883 80.7652 434.209L36.05 433.855L36.1447 397.483L58.4763 397.696Z" fill="#4D5E76"/>
<path d="M43.6593 418.943C43.2252 419.075 42.855 419.363 42.6189 419.75C42.3828 420.138 42.2972 420.598 42.3785 421.045C42.4866 421.483 42.7597 421.862 43.141 422.104C43.5222 422.346 43.9821 422.432 44.425 422.344C45.2946 422.126 46.0602 420.974 45.7672 420.114C45.4741 419.254 44.2878 418.574 43.4938 418.999" fill="#E9E4F1"/>
<g opacity="0.6">
<path d="M18.0638 459.846L18.2149 456.18L61.0303 457.89C61.0303 457.89 63.0152 458.783 62.7789 460.2L18.0638 459.846Z" fill="white"/>
</g>
<path d="M40.211 446.79C40.211 447.012 39.1098 447.101 38.0322 447.805C36.9546 448.509 36.3733 449.43 36.1701 449.345C35.9669 449.26 36.3072 447.98 37.6258 447.153C38.9444 446.327 40.2582 446.586 40.211 446.79Z" fill="#2A3442"/>
<path d="M44.8852 448.792C44.9372 449.005 43.9874 449.373 43.2359 450.304C42.4844 451.234 42.2669 452.222 42.0495 452.193C41.8321 452.165 41.7046 450.932 42.6546 449.794C43.6046 448.655 44.8852 448.58 44.8852 448.792Z" fill="#2A3442"/>
<path d="M47.5038 454.498C47.3053 454.541 47.0076 453.436 47.5795 452.226C48.1514 451.017 49.1723 450.549 49.2621 450.734C49.3519 450.918 48.7184 451.56 48.2647 452.557C47.8109 453.554 47.7259 454.475 47.5038 454.498Z" fill="#2A3442"/>
<path d="M57.8477 415.452C57.7532 415.65 56.7512 415.338 55.5176 415.414C54.2841 415.49 53.3198 415.886 53.2064 415.683C53.093 415.48 54.0241 414.71 55.4798 414.644C56.9355 414.578 57.9517 415.277 57.8477 415.452Z" fill="#2A3442"/>
<path d="M30.8133 227.064V245.486L35.7145 317.332C35.7145 317.332 32.6707 352.179 30.8038 371.848C29.178 388.929 31.8342 418.678 31.8342 418.678H60.291L70.4714 319.482L76.7951 257.602L87.7885 229.44L30.8133 227.064Z" fill="#2A3442"/>
<path d="M100.729 227.064L103.48 301.933C103.291 315.981 99.4151 342.207 94.3911 355.31L71.5206 405.504L70.1973 410.02L53.1828 405.858L65.8304 228.306L100.729 227.064Z" fill="#2A3442"/>
<path d="M81.0348 246.894C81.058 247.05 81.0675 247.208 81.0632 247.366C81.0632 247.687 81.0631 248.122 81.0962 248.679C81.0962 249.865 81.0962 251.565 81.134 253.738C81.134 258.126 81.134 264.484 80.9969 272.335C80.8599 280.186 80.6188 289.534 80.0517 299.902C79.4845 310.271 78.7424 321.707 76.3131 333.44C74.0634 345.216 71.6767 356.378 69.5546 366.539C67.4326 376.699 65.5705 385.858 64.1668 393.581C62.763 401.305 61.7705 407.573 61.1939 411.923C60.8678 414.096 60.6975 415.792 60.532 416.935C60.4564 417.488 60.3998 417.917 60.3525 418.239C60.3385 418.387 60.3134 418.534 60.277 418.678C60.2686 418.52 60.2765 418.362 60.3006 418.206C60.3289 417.889 60.3714 417.455 60.4234 416.897C60.551 415.749 60.6881 414.063 60.9811 411.871C61.4963 407.511 62.4322 401.224 63.7839 393.487C65.1356 385.75 66.9551 376.576 69.0583 366.411C71.1614 356.246 73.5293 345.079 75.7743 333.313C78.1988 321.584 78.903 310.167 79.5553 299.827C80.2075 289.487 80.4157 280.124 80.6094 272.278C80.8032 264.433 80.8692 258.079 80.9212 253.691C80.9496 251.518 80.9684 249.818 80.9826 248.637C80.9826 248.079 80.9828 247.64 81.0064 247.319C81.0047 247.177 81.0142 247.034 81.0348 246.894Z" fill="#4D5E76"/>
<path d="M116.869 207.933C117.255 209.333 117.398 210.789 117.29 212.236C117.082 214.442 116.973 219.875 111.089 221.731C105.205 223.587 99.6561 219.171 97.8553 217.177C96.0546 215.184 96.2674 208.675 96.2674 208.675L105.932 204.372L116.869 207.933Z" fill="#2B378B"/>
<path d="M50.035 124.963L45.1386 132.823L25.2883 141.264L30.2509 222.628L33.8194 237.366L99.8546 235.174L101.485 223.753V168.883C99.9918 154.802 93.1906 146.058 86.8763 142.596L82.7455 139.762L81.1907 134.566L75.3868 129.171L56.7418 124.33L50.035 124.963Z" fill="#2B378B"/>
<g opacity="0.3">
<path d="M28.0768 216.436C30.2074 219.665 33.2192 222.217 36.7555 223.789C40.2918 225.361 44.2047 225.888 48.0312 225.307C54.648 224.187 60.2579 219.818 66.6148 217.626C77.679 213.819 90.2982 216.847 101.202 212.61C101.419 210.72 101.291 208.429 101.419 207.144C95.9555 206.866 90.1516 206.563 85.3498 203.984L80.9731 202.378L28.0768 216.436Z" fill="black"/>
</g>
<path d="M25.3167 141.264C25.3167 141.264 15.9067 149.318 18.6291 170.305C21.1623 189.804 25.6523 216.965 31.6452 220.115C37.6381 223.266 50.5503 221.693 60.0028 216.337C69.4554 210.98 96.8912 196.497 96.8912 196.497L85.5482 176.327L48.9764 190.498C48.9764 190.498 44.2501 158.155 41.4144 152.586" fill="#2B378B"/>
<path d="M41.4096 152.582C41.4096 152.582 41.5137 152.785 41.6933 153.196C41.7831 153.404 41.9012 153.668 42.0193 153.97C42.1375 154.273 42.2463 154.66 42.3787 155.076C42.9175 156.748 43.5602 159.266 44.2692 162.534C45.6871 169.072 47.3837 178.595 49.1844 190.465L48.9197 190.314L85.4726 176.077L85.6759 176.001L85.7846 176.19L97.1514 196.351L97.2837 196.587L97.0425 196.719L73.5909 209.346L62.0871 215.538C60.1966 216.544 58.3061 217.607 56.3636 218.448C54.4172 219.265 52.4202 219.956 50.3849 220.517C46.4181 221.625 42.3017 222.103 38.1864 221.934C36.1757 221.857 34.1926 221.44 32.321 220.701L31.6359 220.394C31.4085 220.27 31.1877 220.135 30.9742 219.988C30.5827 219.667 30.2262 219.306 29.9108 218.911C29.3125 218.137 28.7947 217.305 28.3653 216.426C26.6497 212.959 25.6334 209.341 24.6976 205.845C23.7618 202.35 23.0482 198.892 22.3913 195.557C21.0963 188.878 20.1367 182.619 19.3333 176.894C18.5298 171.169 17.8257 165.964 18.0384 161.353C18.1358 157.41 18.8355 153.504 20.1133 149.771C20.9418 147.42 22.1105 145.203 23.5823 143.191C23.9643 142.669 24.3828 142.175 24.8347 141.713C24.9818 141.554 25.1397 141.405 25.3073 141.269C25.3073 141.269 25.1513 141.429 24.8582 141.741C24.4282 142.22 24.0259 142.723 23.6531 143.248C22.2329 145.275 21.105 147.491 20.3023 149.833C19.0675 153.551 18.4031 157.436 18.3315 161.353C18.1472 165.935 18.8749 171.117 19.702 176.833C20.5291 182.548 21.5121 188.798 22.826 195.458C23.4877 198.788 24.244 202.222 25.1467 205.713C26.0494 209.204 27.1128 212.799 28.8001 216.185C29.2172 217.031 29.7173 217.833 30.2935 218.58C30.583 218.944 30.9112 219.275 31.2719 219.567C31.4594 219.697 31.6534 219.817 31.8533 219.926L32.5103 220.219C34.3294 220.928 36.2543 221.327 38.2053 221.4C42.2627 221.56 46.3201 221.082 50.2289 219.983C52.2396 219.43 54.2117 218.745 56.1321 217.933C58.0652 217.102 59.9132 216.044 61.8037 215.047L73.3073 208.854L96.778 196.247L96.6693 196.615L85.3263 176.441L85.6381 176.549L49.0427 190.678L48.811 190.768L48.778 190.522C47.0246 178.661 45.3846 169.119 44.0518 162.582C43.3901 159.308 42.7803 156.786 42.284 155.109C42.1564 154.693 42.0478 154.32 41.9485 153.999C41.8492 153.678 41.7359 153.437 41.6508 153.219C41.4807 152.79 41.4096 152.582 41.4096 152.582Z" fill="#2A3442"/>
<path d="M44.5621 164.537L68.3163 162.974L73.5719 172.851L46.9441 177.636L44.5621 164.537Z" fill="#2B378B"/>
<path d="M44.5622 164.537C44.6518 164.848 44.7243 165.163 44.7796 165.482C44.9119 166.143 45.0866 167.017 45.3087 168.113C45.7577 170.418 46.3816 173.649 47.1473 177.598L46.9064 177.428L70.8733 173.054L73.52 172.581L73.3262 172.983C71.4829 169.506 69.7247 166.181 68.0894 163.101L68.3303 163.233L51.3158 164.225L46.3816 164.48L45.0489 164.537C44.8915 164.547 44.7336 164.547 44.5762 164.537C44.7126 164.504 44.8519 164.485 44.9921 164.48L46.2683 164.367L51.1316 163.98L68.3117 162.719H68.4769L68.5526 162.865L73.8272 172.728L74.0019 173.059L73.6333 173.129L70.9819 173.602L46.9961 177.853L46.7882 177.891L46.7504 177.683C46.0698 173.663 45.512 170.376 45.1103 168.028C44.9338 166.941 44.7952 166.075 44.6944 165.43C44.6313 165.135 44.5872 164.837 44.5622 164.537Z" fill="#2A3442"/>
<path d="M48.9765 190.494C49.123 190.607 46.9962 193.106 45.2239 196.677C43.4515 200.248 42.6905 203.436 42.5109 203.389C42.4447 203.389 42.5629 202.558 42.9032 201.278C43.3541 199.607 43.9667 197.984 44.7323 196.431C45.5042 194.883 46.434 193.419 47.5067 192.062C48.3385 191.023 48.9481 190.451 48.9765 190.494Z" fill="#2A3442"/>
<path d="M72.8346 145.265C72.3658 144.993 71.9242 144.676 71.516 144.32L68.0705 141.585L68.3731 141.538C67.0366 143.689 65.4502 145.674 63.6468 147.452L63.4767 147.617L63.2923 147.461L59.653 144.443C55.7444 141.254 52.0911 138.5 49.4491 136.535L46.2967 134.211C45.8902 133.952 45.5128 133.65 45.1717 133.309C45.6075 133.513 46.0238 133.756 46.4148 134.037C47.1947 134.537 48.3052 135.274 49.6711 136.219C52.3934 138.108 56.0847 140.82 59.998 144.018C61.2788 145.057 62.5029 146.087 63.6325 147.06H63.278C65.0573 145.319 66.6421 143.39 68.0043 141.306L68.1367 141.108L68.3068 141.259L71.6388 144.131C72.0748 144.467 72.4756 144.847 72.8346 145.265Z" fill="#2A3442"/>
<path d="M82.6037 140.272C82.7438 140.698 82.8095 141.146 82.7975 141.595C82.8608 142.767 82.8213 143.943 82.6794 145.109L82.6037 145.732L82.2398 145.208C81.3636 143.939 80.4169 142.72 79.404 141.557C78.9834 141.084 78.5533 140.612 78.1327 140.14C77.9294 139.932 77.6978 139.667 77.523 139.521C77.3481 139.374 77.334 139.379 77.1544 139.582L75.401 142.024C74.3896 143.408 73.7325 144.244 73.6711 144.202C73.6097 144.159 74.1437 143.257 75.089 141.802L76.7526 139.285C76.8584 139.108 77.0273 138.978 77.2253 138.921C77.3345 138.906 77.4456 138.915 77.5509 138.948C77.6562 138.981 77.7533 139.036 77.835 139.11C78.1091 139.341 78.2838 139.54 78.5107 139.766C78.9455 140.211 79.3803 140.711 79.8104 141.184C80.8343 142.364 81.7727 143.616 82.618 144.929L82.1784 145.033C82.6321 142.213 82.5044 140.272 82.6037 140.272Z" fill="#2A3442"/>
<path d="M40.3226 149.389C40.2517 149.431 39.7318 148.732 38.848 147.636C37.7363 146.198 36.425 144.925 34.9536 143.857C33.4464 142.858 31.7432 142.191 29.9578 141.902C28.5778 141.68 27.7034 141.656 27.7034 141.561C27.7034 141.467 28.5826 141.387 30.01 141.519C31.8896 141.705 33.6936 142.355 35.2608 143.408C36.7844 144.498 38.1042 145.848 39.16 147.395C39.9682 148.571 40.3793 149.351 40.3226 149.389Z" fill="#2A3442"/>
<path d="M91.9571 163.956C91.8106 164.003 90.9693 161.736 90.0666 158.897C89.1639 156.058 88.5636 153.701 88.7101 153.673C88.8567 153.644 89.6932 155.893 90.6006 158.732C91.5081 161.571 92.08 163.914 91.9571 163.956Z" fill="#2A3442"/>
<path d="M101.277 210.418C101.358 210.418 101.4 211.216 101.49 212.501C101.58 213.786 101.712 215.557 101.802 217.532C101.896 219.22 101.861 220.912 101.698 222.595C101.547 223.89 101.31 224.664 101.225 224.65C101.14 224.636 101.225 223.842 101.291 222.567C101.358 221.292 101.32 219.515 101.235 217.555C101.15 215.595 101.069 213.809 101.084 212.51C101.098 211.211 101.207 210.418 101.277 210.418Z" fill="#2A3442"/>
<path d="M58.1737 171.457C57.9506 171.69 57.8236 171.998 57.8178 172.32C57.8121 172.643 57.9281 172.955 58.1428 173.195C58.3574 173.436 58.6549 173.587 58.9759 173.617C59.2968 173.648 59.6175 173.557 59.874 173.362C60.1306 173.166 60.3041 172.882 60.3598 172.564C60.4156 172.247 60.3497 171.92 60.175 171.649C60.0003 171.379 59.7296 171.184 59.4173 171.103C59.1051 171.023 58.7741 171.063 58.4903 171.216" fill="#E9E4F1"/>
<g opacity="0.3">
<path d="M42.9788 157.423L49.6428 177.149L71.6058 173.2L50.4274 181.495L48.655 188.335L42.9788 157.423Z" fill="black"/>
</g>
<g opacity="0.3">
<path d="M45.7437 133.697L65.3859 151.486L68.4204 143.186L71.6057 144.244L68.203 141.41C68.203 141.41 64.4692 147.14 63.4767 147.244L45.7437 133.697Z" fill="black"/>
</g>
<path d="M83.1662 176.233C82.9856 175.852 82.8507 175.451 82.7644 175.038L81.8191 171.731C81.0393 168.949 79.9286 165.118 78.5108 160.933C77.0929 156.748 75.7412 153.002 74.7297 150.305L73.5246 147.121C73.3514 146.738 73.2198 146.337 73.1323 145.926C73.3746 146.272 73.573 146.646 73.7231 147.041C74.0681 147.773 74.5456 148.841 75.108 150.177C76.2328 152.846 77.679 156.583 79.0685 160.782C80.4581 164.981 81.5263 168.84 82.2163 171.646C82.5613 173.063 82.8212 174.197 82.9772 174.991C83.0822 175.397 83.1455 175.813 83.1662 176.233Z" fill="#2A3442"/>
<path d="M82.873 154.315C86.5926 158.023 95.9979 167.669 95.9979 167.669L98.517 166.153L85.2551 152.01C84.9872 151.724 84.6264 151.542 84.2369 151.497C83.8473 151.452 83.4544 151.547 83.1282 151.764C82.9241 151.9 82.7528 152.08 82.6263 152.29C82.4999 152.5 82.4216 152.736 82.3972 152.98C82.3727 153.224 82.4028 153.47 82.4851 153.701C82.5674 153.932 82.6998 154.142 82.873 154.315Z" fill="#2A3442"/>
<path d="M85.5482 176.313L88.7101 167.419C89.031 166.453 89.6393 165.609 90.4536 164.999C91.2678 164.388 92.2491 164.041 93.2662 164.003C93.4236 163.992 93.5815 163.992 93.7389 164.003C95.6294 164.211 105.299 164.839 105.299 164.839L109.042 169.034C109.352 169.381 109.526 169.828 109.534 170.292C109.541 170.757 109.382 171.209 109.085 171.566L110.158 179.124L108.031 180.541L108.244 185.827C108.244 185.827 106.353 187.088 105.512 186.667L104.671 186.247L103.409 184.986L99.8357 190.026L94.8921 192.86L85.5482 176.313Z" fill="#E2DCED"/>
<path d="M109.104 171.991C109.024 172.033 108.693 171.311 107.752 170.522C107.216 170.059 106.606 169.69 105.947 169.431C105.088 169.233 104.213 169.114 103.333 169.076C99.5049 168.717 96.414 168.307 96.4281 168.132C96.4423 167.957 99.5569 168.132 103.38 168.51C104.304 168.545 105.221 168.686 106.112 168.93C106.821 169.229 107.463 169.664 108.003 170.21C108.943 171.155 109.165 171.977 109.104 171.991Z" fill="#D4BDBF"/>
<path d="M108.896 178.949C108.797 178.949 108.759 178.122 108.121 177.012C107.253 175.586 105.939 174.485 104.383 173.881C102.797 173.312 101.123 173.032 99.4388 173.054C98.1297 173.054 97.3166 173.054 97.3072 172.983C97.2977 172.912 98.1013 172.747 99.4294 172.662C101.179 172.527 102.937 172.769 104.586 173.37C106.259 174.01 107.638 175.243 108.461 176.833C109.052 178.075 108.972 178.958 108.896 178.949Z" fill="#D4BDBF"/>
<path d="M107.946 185.434C107.866 185.472 107.54 184.669 107.44 183.351C107.401 182.608 107.241 181.876 106.968 181.183C106.783 180.791 106.506 180.448 106.16 180.186C105.815 179.924 105.411 179.749 104.983 179.676C103.092 179.171 101.254 179.143 99.9493 178.954C98.6449 178.765 97.8415 178.538 97.8604 178.481C97.8793 178.425 98.6732 178.519 99.9823 178.58C101.292 178.642 103.13 178.632 105.124 179.161C105.636 179.283 106.118 179.504 106.542 179.813C106.937 180.123 107.243 180.53 107.431 180.994C107.709 181.75 107.843 182.551 107.828 183.356C107.828 184.641 108.026 185.406 107.946 185.434Z" fill="#D4BDBF"/>
<path d="M127.813 192L90 231.508L91.4532 233L118.545 229.917L155 194.788L154.961 193.093L127.813 192Z" fill="#4D5E76"/>
<g opacity="0.3">
<path d="M115.915 195.774C115.107 195.038 114.154 194.478 113.117 194.131C112.08 193.785 110.982 193.659 109.893 193.762C107.709 193.987 105.642 194.859 103.957 196.266C102.587 197.362 101.4 198.788 100.998 200.517C100.304 203.498 102.284 206.62 104.983 208.075L105.356 207.645L115.626 199.402C116.185 199.048 116.605 198.512 116.817 197.886C116.973 197.083 116.482 196.327 115.915 195.774Z" fill="black"/>
</g>
<path d="M111.51 191.755C111.51 191.755 115.555 191.835 116.869 192.492C118.183 193.148 121.808 197.007 121.808 197.007C121.808 197.007 121.808 199.634 120.759 199.738C120.881 200.325 120.951 200.923 120.967 201.523C121.076 202.997 121.284 203.833 119.289 205.094C119.289 205.094 119.497 207.513 118.76 208.141C118.262 208.562 117.736 208.948 117.186 209.298C117.186 209.298 114.875 212.132 113.509 211.925C112.143 211.717 110.167 213.394 110.167 213.394C110.167 213.394 102.743 210.318 103.522 209.445L106.089 206.61C106.089 206.61 100.998 202.902 101.107 201.75C101.216 200.597 101.632 200.489 101.632 200.489C101.632 200.489 101.419 198.283 103.206 198.07C103.206 198.07 104.572 195.34 105.938 195.236C107.303 195.132 116.553 198.491 116.553 198.491L113.088 195.552C113.088 195.552 109.619 195.028 109.723 193.871C109.827 192.714 111.51 191.755 111.51 191.755Z" fill="#E2DCED"/>
<path d="M110.895 205.595C110.81 205.727 108.792 204.561 106.207 203.318C103.621 202.076 101.452 201.211 101.504 201.06C101.556 200.909 103.825 201.533 106.443 202.822C109.061 204.112 110.975 205.472 110.895 205.595Z" fill="#D4BDBF"/>
<path d="M115.707 202.388C115.655 202.529 112.956 201.655 109.676 200.432C106.396 199.209 103.787 198.103 103.839 197.962C103.891 197.82 106.59 198.694 109.87 199.917C113.15 201.141 115.763 202.236 115.707 202.388Z" fill="#D4BDBF"/>
<path d="M155 194.885C154.834 194.91 154.666 194.919 154.498 194.911H153.04L147.57 194.846L128.53 194.483L128.703 194.41L119.14 204.304L99.3257 224.669L93.2676 230.799L91.6058 232.447C91.4204 232.649 91.2177 232.834 91 233C91.1607 232.779 91.3387 232.571 91.5322 232.378L93.129 230.652L99.0616 224.41C104.142 219.144 111.1 211.927 118.785 203.95L128.375 194.078L128.448 194H128.552L147.592 194.544L153.061 194.742L154.516 194.816C154.679 194.823 154.841 194.846 155 194.885Z" fill="#2A3442"/>
<path d="M91.957 85.9785C90.7849 84.4008 88.7716 83.697 86.8338 83.3474C85.7137 83.149 84.4705 83.0498 83.5016 83.6025C82.2114 84.3205 81.682 85.9643 81.8001 87.4334C81.9183 88.9024 82.5564 90.2675 83.0763 91.6846C83.5962 93.1017 84.0216 94.5708 83.6766 96.0115L87.4576 105.024C88.1086 104.78 88.6985 104.398 89.1861 103.902C89.6736 103.407 90.047 102.811 90.2802 102.157C90.5134 101.502 90.6008 100.804 90.5361 100.113C90.4714 99.4207 90.2564 98.7514 89.9059 98.1513C90.5055 97.8276 91.0259 97.3752 91.4297 96.8266C91.8335 96.278 92.1107 95.6467 92.2413 94.9783C92.3719 94.3098 92.3526 93.6207 92.185 92.9606C92.0174 92.3004 91.7054 91.6856 91.2716 91.1603C92.9872 90.1967 93.1244 87.5609 91.957 85.9785Z" fill="#2A3442"/>
<path d="M57.0251 109.507C56.8738 103.439 56.7243 97.3671 56.5762 91.2925L45.0488 90.7634C44.3449 90.9406 43.7053 91.3131 43.204 91.8377C42.7026 92.3624 42.3599 93.018 42.2151 93.729C42.0704 94.4399 42.1295 95.1773 42.3859 95.8561C42.6422 96.5348 43.0852 97.1274 43.6639 97.5655C42.765 97.9579 42.0107 98.62 41.5053 99.4602C40.9998 100.3 40.7686 101.277 40.8434 102.254C40.9182 103.232 41.2954 104.162 41.9227 104.915C42.5501 105.669 43.3964 106.209 44.3445 106.46C43.8176 107.117 43.4745 107.902 43.3501 108.735C43.2256 109.567 43.3244 110.418 43.6362 111.2C43.948 111.982 44.4617 112.668 45.125 113.187C45.7882 113.706 46.5774 114.04 47.4119 114.155C47.4639 116.304 48.6029 118.623 50.673 119.209C52.8518 119.833 55.1678 118.231 56.1414 116.181C57.1151 114.131 57.0771 111.774 57.0251 109.507Z" fill="#2A3442"/>
<path d="M44.7322 88.7606C44.7322 88.7606 45.8713 103.82 47.3411 108.416C48.811 113.012 52.0674 117.962 52.0674 117.962L87.2402 107.051C88.4313 98.9117 89.6601 90.7351 89.1591 84.3299L77.9389 80.3384L44.7322 88.7606Z" fill="#2A3442"/>
<path d="M52.1761 108.416C50.7866 104.353 49.4206 100.258 48.7542 96.0209C48.0878 91.7838 48.1492 87.3483 49.5907 83.3049C49.8081 82.6908 51.6799 78.5812 52.3321 78.6285C52.8047 78.6662 51.6563 82.4971 51.8973 82.8797C54.1896 86.6822 54.8606 91.2831 54.5676 95.7138C54.2442 100.017 53.4421 104.271 52.1761 108.397" fill="#2A3442"/>
<path d="M76.5968 136.625V126.432C76.5968 126.432 86.9946 125.227 87.524 114.911C87.7792 109.927 87.4719 99.625 87.0843 90.3005C86.8825 85.4697 84.868 80.8918 81.4419 77.4782C78.0158 74.0645 73.4293 72.0653 68.5951 71.8784L67.6028 71.8406C56.8316 72.0484 50.9899 81.2878 51.4956 92.0577L51.4673 127.013L72.7638 142.36L76.5968 136.625Z" fill="#E2DCED"/>
<path d="M76.6156 126.432C76.6156 126.432 70.0933 126.554 63.3253 121.93C63.3253 121.93 66.3124 129.563 76.6535 129.015L76.6156 126.432Z" fill="#D4BDBF"/>
<path d="M83.7334 99.129C83.7187 99.5107 83.5562 99.8719 83.2802 100.136C83.0042 100.401 82.6364 100.548 82.2542 100.546C82.066 100.553 81.8781 100.522 81.7019 100.456C81.5257 100.39 81.3645 100.289 81.2277 100.16C81.0908 100.03 80.9812 99.8752 80.905 99.7031C80.8289 99.531 80.7878 99.3455 80.7841 99.1573C80.8 98.7759 80.9628 98.4154 81.2385 98.1513C81.5142 97.8872 81.8817 97.7399 82.2636 97.7402C82.4518 97.7333 82.6394 97.7639 82.8156 97.8302C82.9918 97.8965 83.153 97.9973 83.2899 98.1266C83.4267 98.2558 83.5363 98.411 83.6125 98.5831C83.6887 98.7553 83.7298 98.9408 83.7334 99.129Z" fill="#2A3442"/>
<path d="M84.7305 94.4998C84.5414 94.684 83.4544 93.8149 81.8664 93.7535C80.2783 93.6921 79.0873 94.4431 78.9219 94.2258C78.8416 94.1361 79.0401 93.796 79.56 93.4464C80.265 93.0007 81.0897 92.7814 81.9231 92.8182C82.7487 92.8463 83.5436 93.1376 84.1916 93.6495C84.669 94.0605 84.825 94.4148 84.7305 94.4998Z" fill="#2A3442"/>
<path d="M69.5073 99.3795C69.4926 99.7612 69.3301 100.122 69.0541 100.387C68.7781 100.651 68.4103 100.798 68.028 100.797C67.8399 100.803 67.6522 100.773 67.476 100.707C67.2998 100.64 67.1386 100.539 67.0018 100.41C66.865 100.281 66.7551 100.126 66.6789 99.9536C66.6028 99.7815 66.5617 99.596 66.558 99.4078C66.5727 99.026 66.7353 98.6649 67.0113 98.4005C67.2872 98.1361 67.6552 97.9892 68.0375 97.9907C68.2257 97.9838 68.4133 98.0144 68.5895 98.0807C68.7657 98.147 68.9269 98.2478 69.0638 98.3771C69.2006 98.5063 69.3102 98.6616 69.3864 98.8337C69.4625 99.0058 69.5037 99.1913 69.5073 99.3795Z" fill="#2A3442"/>
<path d="M69.1574 94.5329C68.9683 94.7171 67.8814 93.848 66.2981 93.7913C64.7148 93.7346 63.5144 94.4809 63.349 94.2637C63.2686 94.1739 63.4671 93.8338 63.9917 93.4843C64.6967 93.0385 65.5214 92.8193 66.3548 92.856C67.1804 92.8841 67.9753 93.1754 68.6233 93.6874C69.1007 94.0936 69.2708 94.4479 69.1574 94.5329Z" fill="#2A3442"/>
<path d="M74.3752 106.942C74.3752 106.852 75.3631 106.72 76.9701 106.578C77.3765 106.578 77.7641 106.488 77.8445 106.214C77.8925 105.797 77.815 105.374 77.6222 105C77.2756 104.009 76.9165 102.965 76.5447 101.869C75.0512 97.4143 73.9878 93.7582 74.1816 93.6968C74.3754 93.6354 75.7175 97.2065 77.211 101.661C77.5655 102.761 77.9107 103.805 78.2368 104.807C78.4715 105.307 78.5232 105.874 78.3831 106.408C78.3189 106.548 78.2233 106.672 78.1036 106.77C77.984 106.867 77.8435 106.936 77.6931 106.97C77.4671 107.024 77.2352 107.047 77.0031 107.041C75.3772 107.065 74.3752 107.032 74.3752 106.942Z" fill="#2A3442"/>
<path d="M69.6632 107.858C69.9184 107.858 69.8568 109.573 71.2842 110.853C72.7115 112.133 74.5502 112.015 74.555 112.27C74.555 112.379 74.1343 112.587 73.3545 112.582C72.3453 112.556 71.3777 112.174 70.6226 111.505C69.8957 110.863 69.4482 109.963 69.375 108.997C69.3372 108.26 69.5451 107.844 69.6632 107.858Z" fill="#2A3442"/>
<path d="M69.8902 89.0819C69.7153 89.507 68.1414 89.2425 66.2698 89.3936C64.3982 89.5448 62.8718 89.9935 62.6402 89.5967C62.5362 89.4078 62.815 89.011 63.4389 88.619C64.2645 88.1264 65.1966 87.8396 66.1565 87.7829C67.1127 87.7071 68.0731 87.8593 68.959 88.2269C69.6349 88.5481 69.9658 88.8788 69.8902 89.0819Z" fill="#2A3442"/>
<path d="M84.2814 89.1999C83.9884 89.5495 82.9108 89.1338 81.5922 89.063C80.2736 88.9921 79.1583 89.2094 78.9173 88.822C78.8133 88.6378 79.0023 88.2836 79.4986 87.9623C80.1683 87.5788 80.9369 87.4027 81.7069 87.4565C82.4768 87.5103 83.2134 87.7916 83.8231 88.2647C84.2721 88.652 84.3948 89.0204 84.2814 89.1999Z" fill="#2A3442"/>
<path d="M52.058 99.7241C51.8878 99.6391 45.0442 97.3623 44.9969 104.415C44.9497 111.467 52.0533 110.083 52.0863 109.87C52.1194 109.658 52.058 99.7241 52.058 99.7241Z" fill="#E2DCED"/>
<path d="M49.9263 107.178C49.8932 107.154 49.8034 107.263 49.5907 107.358C49.2965 107.476 48.968 107.476 48.6739 107.358C47.9271 107.079 47.3081 105.889 47.2798 104.618C47.2688 104.011 47.3913 103.41 47.6388 102.856C47.7065 102.633 47.8282 102.43 47.9931 102.265C48.158 102.1 48.361 101.979 48.5841 101.911C48.7261 101.874 48.8765 101.888 49.0094 101.95C49.1423 102.012 49.2494 102.119 49.312 102.251C49.4065 102.45 49.3593 102.591 49.3971 102.606C49.4349 102.62 49.5482 102.488 49.4915 102.195C49.4539 102.02 49.357 101.863 49.2173 101.751C49.1221 101.676 49.0128 101.621 48.8959 101.589C48.7789 101.558 48.6568 101.55 48.5368 101.566C48.247 101.621 47.9763 101.749 47.7503 101.939C47.5244 102.128 47.3508 102.372 47.2465 102.648C46.9389 103.258 46.7863 103.935 46.8023 104.618C46.8401 106.035 47.5586 107.376 48.5795 107.679C48.7681 107.736 48.967 107.75 49.1617 107.719C49.3564 107.689 49.5419 107.616 49.7043 107.504C49.8933 107.348 49.9499 107.192 49.9263 107.178Z" fill="#D4BDBF"/>
<path d="M82.5046 78.6284C83.6436 77.9954 80.2077 74.2968 77.3909 73.0262C73.1372 71.1084 66.6481 69.9322 62.7395 71.047C58.0132 72.3932 54.1092 74.7456 51.746 79.0393C49.3829 83.3331 48.5039 88.3355 48.6504 93.2102C48.693 94.7029 48.849 96.2617 49.6524 97.5229C50.6402 99.0864 52.5402 100.064 52.4598 102.218C52.4336 102.609 52.4851 103.001 52.6117 103.371C52.7382 103.742 52.9374 104.084 53.1971 104.377C54.4921 105.751 56.0705 104.452 56.7984 103.158C58.3486 100.39 58.5141 97.0836 58.6464 93.9141C58.741 91.6609 58.826 89.3558 58.1738 87.1971C57.8241 86.0162 57.2662 84.9061 56.9874 83.711C56.7085 82.5159 56.737 81.1602 57.4838 80.1825C57.6554 79.9709 57.8468 79.7764 58.0556 79.6015C59.0388 78.7379 60.2342 78.1515 61.5191 77.9024C62.8041 77.6534 64.1324 77.7507 65.3673 78.1844C69.3515 79.6015 76.1525 81.6751 77.9249 80.3242C80.4771 78.3781 81.0867 77.1074 81.0867 77.1074L82.5046 78.6284Z" fill="#2A3442"/>
<path d="M62.5172 63.7206C62.0209 63.7726 49.9265 66.0825 46.6228 74.9156C43.3191 83.7488 44.1083 86.5263 44.1083 86.5263C43.6324 86.8099 43.1982 87.1581 42.818 87.5608C42.3029 88.1323 42.9363 90.9713 44.5149 90.7067C56.4109 85.9123 70.306 85.8556 85.7562 86.8522L97.6002 87.1026C100.909 87.575 102.095 86.7578 100.724 85.8792C99.6703 85.2084 90.3927 81.1178 90.3927 81.1178L88.5873 79.7007L83.9225 72.7711C83.9225 72.7711 84.5558 71.8264 83.3884 71.0234C82.2211 70.2204 72.3573 62.6862 62.5172 63.7206Z" fill="#2B378B"/>
<path d="M88.5873 79.7101C88.5873 79.7101 88.4266 79.7101 88.1147 79.7101L86.7912 79.6346C85.6474 79.5495 83.9839 79.507 81.9327 79.4834C76.586 79.4892 71.25 79.9633 65.9861 80.9005C60.72 81.8506 55.5126 83.1013 50.3895 84.6463C48.4186 85.2179 46.8308 85.7186 45.7343 86.0634L44.4722 86.4508C44.1791 86.5358 44.0233 86.5736 44.0233 86.5736C44.0233 86.5736 44.1698 86.5122 44.4581 86.413L45.7105 85.9879C46.8023 85.6289 48.3809 85.114 50.347 84.5188C55.4638 82.9345 60.6723 81.6631 65.9437 80.7115C71.2172 79.7682 76.566 79.3081 81.9232 79.337C84.1494 79.3489 86.3737 79.4734 88.5873 79.7101Z" fill="#2A3442"/>
<g opacity="0.3">
<path d="M51.3774 68.6239C51.3774 68.6239 64.3841 66.9659 70.084 69.9417L69.4221 69.5827L74.8149 72.1713C75.7271 72.6106 76.8 73.0499 77.7074 72.6106C77.7074 72.6106 74.8715 69.8898 69.5214 67.887C64.1712 65.8842 55.6027 64.7883 51.3774 68.6239Z" fill="black"/>
</g>
<path d="M51.1884 68.7088C51.5649 68.4381 51.9614 68.1965 52.3746 67.9861C53.4907 67.3947 54.6726 66.9365 55.8958 66.621C57.7133 66.1464 59.5908 65.9411 61.468 66.0116C63.7755 66.0426 66.0495 66.5678 68.1367 67.5515C69.1978 68.087 70.2252 68.6864 71.2134 69.3465C72.1587 69.9842 73.104 70.5463 73.9689 71.1792C74.739 71.8055 75.5613 72.365 76.4266 72.8514C77.1987 73.2372 78.0494 73.4393 78.9125 73.4419C82.0886 73.593 84.0641 72.9979 83.927 72.7947C83.8695 72.9033 83.7761 72.9885 83.6626 73.0356C83.3474 73.1756 83.0152 73.2741 82.6746 73.3285C81.4275 73.5519 80.1593 73.6359 78.8936 73.5789C78.0126 73.5721 77.1453 73.3602 76.3604 72.9601C75.481 72.4771 74.646 71.9176 73.865 71.2879C73.0238 70.6691 72.0643 70.1023 71.1096 69.4693C70.1268 68.8165 69.1056 68.2234 68.0516 67.6932C65.9893 66.72 63.7435 66.1967 61.4632 66.158C59.6041 66.0811 57.7436 66.2704 55.9382 66.7201C54.7184 67.0211 53.5359 67.4568 52.4124 68.0191C52.0154 68.2175 51.7129 68.3828 51.5097 68.4915C51.3064 68.6001 51.1884 68.7088 51.1884 68.7088Z" fill="#2A3442"/>
<g opacity="0.3">
<path d="M45.3703 78.6285C47.6909 78.6946 49.4678 78.1561 51.7884 77.7263C54.2603 77.2539 56.7038 76.928 59.152 76.3564C61.0094 75.9265 63.2025 75.5534 64.4455 74.2686C64.5211 74.7246 64.4776 75.1924 64.3195 75.6269C64.1614 76.0613 63.8939 76.4476 63.5427 76.7485C62.8149 77.4003 60.5039 78.1277 59.5491 78.3498C54.1281 79.6346 50.3706 80.4896 44.7842 80.7116C44.9328 80.0126 45.1287 79.3246 45.3703 78.6521" fill="black"/>
</g>
<path d="M47.0292 73.952C45.5404 74.5425 44.6235 74.9393 44.5384 76.1911C44.4675 77.2303 44.6376 78.5104 45.6538 78.7276C45.9685 78.7735 46.289 78.7607 46.599 78.6898L62.7156 76.0068C63.2726 75.9786 63.8017 75.7544 64.2092 75.3738C64.7575 74.7267 64.4172 73.6544 63.7366 73.1537C63.0023 72.7159 62.1571 72.4994 61.3026 72.5302C56.4771 72.2799 51.746 72.9176 47.0292 73.9473" fill="#2B378B"/>
<path d="M63.9634 75.6006C64.1789 75.4182 64.342 75.1818 64.436 74.9157C64.5378 74.5543 64.5365 74.1717 64.4321 73.8111C64.3277 73.4505 64.1244 73.1263 63.8452 72.8751C63.1079 72.2657 61.9168 72.0343 60.6502 72.0579C59.3835 72.0815 57.9468 72.1193 56.4628 72.2138C53.9309 72.347 51.4161 72.7059 48.948 73.286C48.0028 73.5128 47.2513 73.7584 46.7315 73.9096L46.1358 74.1032C46.0682 74.132 45.9965 74.1495 45.9233 74.1552C45.9855 74.1173 46.0522 74.0872 46.1217 74.0655L46.7077 73.834C47.2181 73.6497 47.9698 73.3947 48.915 73.1491C51.3846 72.5253 53.9094 72.1456 56.4533 72.0154C57.9373 71.9209 59.3552 71.8831 60.6502 71.8737C61.9452 71.8642 63.1598 72.1051 63.9586 72.7712C64.2514 73.041 64.4606 73.3893 64.5611 73.7745C64.6616 74.1597 64.6494 74.5656 64.5258 74.944C64.4563 75.1475 64.3378 75.3308 64.1808 75.4778C64.1148 75.5293 64.0416 75.5707 63.9634 75.6006Z" fill="#2A3442"/>
<path d="M85.3876 74.9487L75.3253 74.396L76.0815 77.2632L87.037 77.4002L85.3876 74.9487Z" fill="white"/>
<path d="M69.8523 83.352C69.8523 83.3001 74.3564 82.8088 79.9286 82.2609C85.5009 81.7129 90.0194 81.3161 90.0241 81.3681C90.0288 81.4201 85.5198 81.9113 79.9476 82.4593C74.3753 83.0072 69.8571 83.4182 69.8523 83.352Z" fill="#2A3442"/>
<path d="M103.48 225.562H26.0162V238.486H103.48V225.562Z" fill="#4D5E76"/>
<path d="M28.3841 231.806H64.2564V272.165C64.2577 273.031 63.915 273.862 63.3035 274.476C62.6921 275.09 61.8619 275.436 60.9953 275.439H31.6546C31.2251 275.439 30.7998 275.354 30.403 275.19C30.0062 275.025 29.6457 274.785 29.342 274.481C29.0383 274.178 28.7974 273.817 28.633 273.421C28.4687 273.024 28.3841 272.599 28.3841 272.17V231.806Z" fill="#4D5E76"/>
<path d="M64.2565 243.615C64.153 242.872 64.104 242.122 64.1099 241.372C64.082 239.345 63.8154 237.328 63.3158 235.363C63.1411 234.738 62.8167 234.164 62.3706 233.691C61.8561 233.19 61.2888 232.747 60.6786 232.368C59.305 231.57 57.7716 231.087 56.1886 230.951C52.8188 230.701 49.0332 230.814 45.0962 230.847C41.145 230.989 37.3452 230.531 34.0462 231.254C32.4204 231.603 30.8558 232.198 29.9294 233.332C29.0031 234.466 28.7623 235.906 28.6205 237.163C28.3842 239.714 28.4362 241.82 28.3842 243.261C28.3842 243.937 28.3463 244.485 28.3369 244.929C28.4083 244.943 28.4718 244.983 28.5152 245.041C28.5587 245.1 28.5789 245.172 28.5718 245.244C28.5647 245.317 28.5308 245.384 28.4769 245.433C28.423 245.482 28.3529 245.509 28.2801 245.509C28.2073 245.509 28.1371 245.482 28.0832 245.433C28.0293 245.384 27.9955 245.317 27.9884 245.244C27.9813 245.172 28.0015 245.1 28.0449 245.041C28.0884 244.983 28.1519 244.943 28.2233 244.929C28.2233 244.485 28.1903 243.937 28.1714 243.261C28.1714 241.816 28.0438 239.728 28.2376 237.12C28.3558 235.84 28.573 234.319 29.575 233.044C30.5769 231.769 32.2597 231.155 33.9375 230.758C35.7129 230.396 37.5237 230.238 39.3349 230.285C41.1923 230.314 43.1158 230.314 45.0913 230.285C49.0425 230.252 52.7905 230.153 56.2454 230.432C57.8983 230.59 59.4953 231.114 60.9197 231.967C61.5529 232.374 62.1392 232.849 62.6683 233.384C63.1491 233.909 63.492 234.545 63.6657 235.236C64.1452 237.246 64.3598 239.31 64.3038 241.376C64.3038 242.047 64.3038 242.6 64.2754 243.044C64.2872 243.235 64.2809 243.426 64.2565 243.615Z" fill="#2A3442"/>
<path d="M63.9918 247.446C63.9918 247.597 56.1036 247.72 46.377 247.72C36.6503 247.72 28.7622 247.597 28.7622 247.446C28.7622 247.295 36.6456 247.172 46.377 247.172C56.1084 247.172 63.9918 247.295 63.9918 247.446Z" fill="#2A3442"/>
<path d="M38.6543 275.84C38.5031 275.84 38.3802 269.463 38.3802 261.603C38.3802 253.743 38.5031 247.366 38.6543 247.366C38.8056 247.366 38.9283 253.738 38.9283 261.603C38.9283 269.468 38.8056 275.84 38.6543 275.84Z" fill="#2A3442"/>
<path d="M54.8229 275.708C54.6716 275.708 54.5487 269.392 54.5487 261.603C54.5487 253.814 54.6716 247.494 54.8229 247.494C54.9741 247.494 55.0968 253.809 55.0968 261.603C55.0968 269.397 54.9741 275.708 54.8229 275.708Z" fill="#2A3442"/>
<path d="M103.48 225.557L107.946 231.806C107.946 231.806 111.94 269.043 110.167 270.758C108.395 272.472 102.397 272.472 102.397 272.472L100.757 227.881L103.48 225.557Z" fill="#4D5E76"/>
<path d="M89.4473 237.966C89.3008 237.966 88.9134 235.179 88.8708 231.693C88.8283 228.207 89.1307 225.392 89.2772 225.406C89.4237 225.42 89.3716 228.24 89.4189 231.684C89.4662 235.127 89.5938 237.952 89.4473 237.966Z" fill="#2A3442"/>
<path d="M103.56 225.76C103.636 225.76 103.829 226.549 104.033 227.857C104.295 229.562 104.472 231.279 104.562 233.001C104.657 233.967 104.618 234.942 104.444 235.897C104.292 236.712 103.865 237.451 103.234 237.99C102.814 238.357 102.283 238.573 101.726 238.604C101.334 238.604 101.136 238.509 101.14 238.481C101.825 238.44 102.474 238.165 102.979 237.701C103.494 237.19 103.835 236.528 103.952 235.812C104.081 234.897 104.102 233.969 104.014 233.049C103.815 229.024 103.404 225.788 103.56 225.76Z" fill="#2A3442"/>
<path d="M443.398 249L447.949 244.809C452.883 245.553 457.925 244.468 462.081 241.768C466.238 239.068 469.21 234.948 470.412 230.218C471.614 225.488 470.96 220.491 468.578 216.208C466.196 211.925 462.258 208.666 457.54 207.073C452.821 205.48 447.662 205.666 443.077 207.597C438.493 209.527 434.813 213.062 432.763 217.505C430.713 221.948 430.441 226.98 431.999 231.609C433.557 236.239 436.833 240.133 441.183 242.525L443.398 249Z" fill="white"/>
<path d="M443.464 248.983L443.325 248.558C443.229 248.27 443.09 247.858 442.912 247.314C442.543 246.215 442.004 244.601 441.305 242.508L441.227 242.584C441.241 242.585 441.255 242.582 441.267 242.574C441.278 242.567 441.287 242.556 441.292 242.543C441.297 242.53 441.298 242.516 441.294 242.503C441.29 242.489 441.281 242.478 441.27 242.47C438.386 240.868 435.958 238.586 434.207 235.833C433.665 234.985 433.193 234.096 432.795 233.175C432.386 232.182 432.049 231.162 431.788 230.122C430.778 226.009 431.177 221.685 432.925 217.815C434.674 213.945 437.673 210.744 441.463 208.702C445.254 206.661 449.625 205.892 453.905 206.515C458.186 207.137 462.139 209.117 465.157 212.148C467.289 214.314 468.887 216.929 469.826 219.791C470.703 222.481 470.957 225.329 470.569 228.126C469.898 233.107 467.273 237.638 463.25 240.763L462.576 241.268C462.36 241.44 462.13 241.596 461.89 241.735L460.504 242.584C459.591 243.047 458.653 243.461 457.694 243.824C454.592 244.926 451.258 245.253 447.994 244.775C447.979 244.769 447.962 244.769 447.946 244.775L444.61 247.9C444.237 248.257 443.95 248.524 443.742 248.716L443.446 249L443.737 248.745L444.606 247.96L448.025 244.86H447.972C451.257 245.369 454.62 245.06 457.751 243.964C458.721 243.601 459.671 243.187 460.596 242.724L461.999 241.875C462.243 241.738 462.475 241.581 462.694 241.408L463.376 240.903C467.457 237.752 470.125 233.173 470.817 228.135C471.215 225.3 470.963 222.413 470.078 219.685C469.125 216.789 467.507 214.144 465.348 211.953C463.077 209.661 460.265 207.949 457.16 206.968C456.779 206.836 456.39 206.727 455.996 206.641L454.823 206.361L453.633 206.191C453.24 206.121 452.842 206.08 452.442 206.068L451.256 206.009C450.861 205.979 450.466 206.034 450.071 206.043C449.675 206.051 449.284 206.043 448.898 206.111L447.738 206.28C444.725 206.754 441.865 207.905 439.385 209.643C436.133 211.909 433.65 215.074 432.257 218.732C430.863 222.39 430.622 226.372 431.566 230.165C431.833 231.214 432.178 232.243 432.6 233.243C433.005 234.171 433.484 235.067 434.033 235.922C435.812 238.69 438.275 240.976 441.196 242.567L441.244 242.457C441.228 242.453 441.211 242.455 441.196 242.463C441.182 242.471 441.171 242.484 441.166 242.499C441.164 242.512 441.164 242.525 441.166 242.538C441.909 244.661 442.469 246.257 442.864 247.361C443.051 247.892 443.199 248.299 443.299 248.584C443.399 248.868 443.464 248.983 443.464 248.983Z" fill="#2A3442"/>
<path d="M441 225.229L443.971 222.596L449.146 227.653L458.538 219L461 221.923L448.451 233L441 225.229Z" fill="#2A3442"/>
</g>
<defs>
<clipPath id="clip0_0_266">
<rect width="473" height="469" fill="white"/>
</clipPath>
</defs>
</svg>
